<?xml version="1.0" encoding="UTF-8"?>
<svg version="1.1" xmlns="http://www.w3.org/2000/svg" width="1000" height="1000">
<path d="M0 0 C330 0 660 0 1000 0 C1000 330 1000 660 1000 1000 C670 1000 340 1000 0 1000 C0 670 0 340 0 0 Z " fill="#1B1F23" transform="translate(0,0)"/>
<path d="M0 0 C0 64.35 0 128.7 0 195 C-12.375 196.98 -12.375 196.98 -25 199 C-37.06190886 201.93217674 -48.07379949 205.27581735 -59.42919922 210.09301758 C-68.96035416 214.01699616 -78.91706598 216.02072125 -89 218 C-89.77537109 218.17958252 -90.55074219 218.35916504 -91.34960938 218.54418945 C-118.78932161 223.26323355 -149.13354069 217.87815544 -173.9375 205.9375 C-174.60620117 205.62143799 -175.27490234 205.30537598 -175.96386719 204.97973633 C-179.97168693 202.94505325 -182.20658726 201.15009952 -184 197 C-184.75345728 193.09975053 -184.38901064 189.8558234 -182.75 186.25 C-180.08533776 182.82400569 -178.18053286 180.39351095 -174 179 C-168.45664729 178.54639232 -164.75431202 179.70761473 -159.9375 182.25 C-152.82182492 185.77235674 -145.75601133 188.20320576 -138 190 C-137.04738281 190.22558594 -136.09476562 190.45117188 -135.11328125 190.68359375 C-120.12604911 193.58499383 -104.09604814 192.46564288 -89 191 C-90.6701388 185.97207784 -92.34225417 180.94481598 -94.015625 175.91796875 C-94.41083721 174.73069215 -94.41083721 174.73069215 -94.81403351 173.51943016 C-98.76474122 161.65611263 -102.74954711 149.80467277 -106.75720215 137.96047974 C-109.08517601 131.07935819 -111.40308531 124.19485697 -113.71889496 117.30963326 C-115.41955142 112.25521673 -117.12550569 107.20269544 -118.84179688 102.15356445 C-120.54033167 97.15581515 -122.22558702 92.15376636 -123.90180206 87.148489 C-124.53335734 85.27031891 -125.16962431 83.39372572 -125.81090546 81.51885414 C-126.69879686 78.92069339 -127.5695159 76.31734959 -128.43652344 73.7121582 C-128.69819305 72.95950684 -128.95986267 72.20685547 -129.22946167 71.43139648 C-131.24768751 65.27050337 -132.35524707 59.24310011 -129.7905426 53.10577393 C-121.71415985 43.60751558 -102.6333266 39.52722032 -91.37890625 35.078125 C-88.98646396 34.12788571 -86.59420926 33.17717397 -84.20213318 32.22601318 C-78.57535289 29.98993645 -72.94673306 27.75855382 -67.31716055 25.52951789 C-60.9205932 22.99648963 -54.52640989 20.45747015 -48.13242447 17.91793299 C-37.20432971 13.57765318 -26.27456119 9.2416113 -15.34262085 4.911026 C-14.44436081 4.55513901 -13.54610077 4.19925201 -12.62062073 3.83258057 C-11.84438638 3.52512028 -11.06815203 3.21765999 -10.26839542 2.90088272 C-8.63568581 2.25245967 -7.01349296 1.57732571 -5.3987112 0.88546371 C-3 0 -3 0 0 0 Z " fill="#F7F8EF" transform="translate(486,476)"/>
<path d="M0 0 C5.97704604 1.79311381 11.45581018 3.45950878 17.16064453 5.77539062 C17.80871944 6.03670776 18.45679436 6.2980249 19.1245079 6.56726074 C20.52205718 7.13120299 21.91882931 7.6970744 23.31487656 8.26472473 C27.18176542 9.83678576 31.05463606 11.39400817 34.92675781 12.953125 C35.74342108 13.28237221 36.56008434 13.61161942 37.40149498 13.95084381 C45.95195777 17.39345616 54.53238791 20.75865653 63.11351776 24.12390137 C68.38028059 26.19229943 73.64203746 28.27339626 78.90386581 30.35430908 C83.38770861 32.12664643 87.8740704 33.89207012 92.36572266 35.64453125 C96.82118221 37.38326681 101.26969334 39.1387654 105.71390152 40.90605164 C107.38199493 41.56595495 109.05248675 42.21983167 110.72546005 42.86726379 C113.03835403 43.7633575 115.34169639 44.68072155 117.64404297 45.60351562 C118.3191391 45.85917297 118.99423523 46.11483032 119.68978882 46.37823486 C125.13620392 48.60438079 128.36412028 51.72824056 131 57 C131.29224335 62.54749009 130.77572926 66.61700465 128.88671875 71.90234375 C128.64920898 72.58126678 128.41169922 73.26018982 128.16699219 73.95968628 C127.63562212 75.47604366 127.09883819 76.99051166 126.5574646 78.50332642 C124.97830364 82.92184172 123.44517115 87.356406 121.90625 91.7890625 C121.54714035 92.82055923 121.1880307 93.85205597 120.81803894 94.91481018 C115.24877571 110.96795661 109.91593857 127.10189076 104.54873657 143.22341919 C102.99914759 147.8778813 101.44687113 152.53144182 99.89377403 157.18473434 C98.7125261 160.72488589 97.53269034 164.26550678 96.353302 167.80627823 C95.79583713 169.4793374 95.2379307 171.15224951 94.67956543 172.82500839 C93.90821708 175.1365209 93.13878588 177.44866272 92.36987305 179.76098633 C92.14296626 180.43968246 91.91605947 181.11837858 91.68227673 181.81764126 C90.6739115 184.85638763 89.71021624 187.87650833 89 191 C113.81859632 193.23447169 139.24271922 192.51946604 162 181.125 C166.24583208 179.08906231 169.33572417 178.4133787 173.9921875 179.28125 C178.57719037 180.92257398 181.3219083 183.98286245 184 188 C184.51897219 192.49775899 184.25424054 196.35184488 181.75390625 200.24609375 C170.15414558 211.84585442 147.61256623 215.94034949 132 218 C131.30406738 218.09498779 130.60813477 218.18997559 129.89111328 218.2878418 C115.10355329 220.13751992 99.63874534 219.72428947 85 217 C83.97777344 216.81695313 82.95554687 216.63390625 81.90234375 216.4453125 C70.23319966 214.05542458 58.92367666 209.72244454 47.8515625 205.38671875 C32.50654286 199.48652483 16.29014424 196.81001603 0 195 C0 130.65 0 66.3 0 0 Z " fill="#F7F8EF" transform="translate(513,476)"/>
<path d="M0 0 C0.88702402 -0.00538554 1.77404803 -0.01077108 2.68795156 -0.01631981 C5.65429227 -0.03060458 8.62018706 -0.02349436 11.58654785 -0.01637268 C13.71560525 -0.02207592 15.84465959 -0.02904 17.97370911 -0.03717041 C23.75254205 -0.05512067 29.5312233 -0.05393004 35.31007576 -0.04822803 C40.13384455 -0.0451393 44.95758408 -0.05122502 49.78134871 -0.05726677 C61.15963643 -0.07131614 72.53784909 -0.06974687 83.9161377 -0.05836487 C95.65755921 -0.04687923 107.39875244 -0.06096601 119.14014387 -0.08776134 C129.22012171 -0.10990447 139.30002781 -0.11655896 149.38002825 -0.11068493 C155.40080259 -0.10731133 161.42143054 -0.10975745 167.44218445 -0.12693596 C173.10247023 -0.14238111 178.76241716 -0.13847633 184.42268944 -0.11963081 C186.50037254 -0.11593842 188.57808061 -0.11907225 190.65574074 -0.1295166 C193.49134538 -0.14268331 196.32582111 -0.13121724 199.16137695 -0.11352539 C199.98414297 -0.1231304 200.80690898 -0.1327354 201.6546073 -0.14263147 C208.17823797 -0.05884504 211.8061952 2.08531076 216.43127441 6.76707458 C219.03866642 12.49052388 218.56969368 18.10660105 218.47131348 24.31736755 C218.46384454 25.67641871 218.45815469 27.0354807 218.4541626 28.39454651 C218.43895716 31.95565506 218.39972112 35.51610148 218.35534668 39.07695007 C218.31428284 42.71689397 218.29612802 46.35694583 218.27600098 49.99705505 C218.23322051 57.12753275 218.16503235 64.25756296 218.08068848 71.38768005 C211.66132685 69.33039127 205.39527262 66.99737998 199.14221191 64.4828949 C198.19307922 64.10367386 197.24394653 63.72445282 196.26605225 63.33374023 C194.22117416 62.51640304 192.17675132 61.69792612 190.13274384 60.87841415 C186.89723145 59.58144819 183.66033381 58.28799779 180.42303467 56.99549866 C171.22456847 53.32228797 162.02857103 49.64291795 152.83361816 45.96092224 C147.19666772 43.70396126 141.55807264 41.4511516 135.91846466 39.20084 C133.77280007 38.34366283 131.62779043 37.48484428 129.48345184 36.62435532 C126.49102968 35.42358587 123.49656078 34.22806404 120.50158691 33.03367615 C119.61733032 32.67730576 118.73307373 32.32093536 117.82202148 31.95376587 C111.48395891 29.43550317 106.00352908 28.20304169 99.14318848 28.01268005 C97.36621582 27.93920349 97.36621582 27.93920349 95.55334473 27.86424255 C89.06060263 28.2599921 83.07074958 31.03428279 77.08068848 33.38768005 C76.34931671 33.67356995 75.61794495 33.95945984 74.8644104 34.25401306 C69.77956706 36.24806927 64.70922307 38.27727422 59.64282227 40.31767273 C56.7646905 41.47675887 53.88525858 42.63256149 51.00549316 43.7875824 C46.88162294 45.44194464 42.75827871 47.0976074 38.63537598 48.75437927 C28.32771464 52.89607258 18.01712792 57.03045467 7.70483398 61.16059875 C4.35783565 62.50180169 1.01172214 63.84519527 -2.33435059 65.18870544 C-4.37825562 66.00773499 -6.42219892 66.82666908 -8.46618652 67.64549255 C-9.88477966 68.21603111 -9.88477966 68.21603111 -11.33203125 68.7980957 C-12.61805237 69.31254494 -12.61805237 69.31254494 -13.93005371 69.83738708 C-14.68034851 70.13839325 -15.43064331 70.43939941 -16.20367432 70.74952698 C-17.91931152 71.38768005 -17.91931152 71.38768005 -18.91931152 71.38768005 C-19.01216105 63.40756825 -19.08315152 55.42768369 -19.12656021 47.44716454 C-19.14739867 43.74110655 -19.17564655 40.03541926 -19.22106934 36.32957458 C-19.26466265 32.75042219 -19.28847676 29.17162541 -19.2988205 25.59222794 C-19.30618788 24.22949758 -19.3205749 22.86678579 -19.34223175 21.50420761 C-19.52532867 9.50254351 -19.52532867 9.50254351 -17.26989746 5.69090271 C-11.99455646 0.52185752 -7.01592912 -0.05124914 0 0 Z " fill="#F5F6EE" transform="translate(399.9193115234375,417.61231994628906)"/>
<path d="M0 0 C34.65 0 69.3 0 105 0 C105 12.87 105 25.74 105 39 C70.35 39 35.7 39 0 39 C0 26.13 0 13.26 0 0 Z " fill="#F7F8EF" transform="translate(447,353)"/>
<path d="M0 0 C1.24463013 -0.0076664 1.24463013 -0.0076664 2.5144043 -0.01548767 C5.25593287 -0.02938157 7.99720995 -0.0284269 10.73876953 -0.02612305 C12.64682102 -0.03001041 14.55487164 -0.03434517 16.46292114 -0.03910828 C20.46261398 -0.04657029 24.46221855 -0.04627957 28.46191406 -0.04101562 C33.5820899 -0.03522449 38.7019036 -0.0521435 43.82201958 -0.0753603 C47.76317449 -0.09010873 51.70424245 -0.09096776 55.64542007 -0.08785057 C57.53282513 -0.08836334 59.42023511 -0.09359272 61.30761337 -0.10366249 C63.95010486 -0.11602949 66.59189435 -0.10923347 69.234375 -0.09765625 C70.01068268 -0.10529999 70.78699036 -0.11294373 71.58682251 -0.12081909 C76.39897472 -0.07433148 79.75022993 0.55199386 83.74658203 3.2746582 C87.74658203 9.2746582 87.74658203 9.2746582 87.74658203 26.2746582 C53.09658203 26.2746582 18.44658203 26.2746582 -17.25341797 26.2746582 C-17.25341797 8.2746582 -17.25341797 8.2746582 -12.25341797 2.2746582 C-8.62007375 -0.4712559 -4.37204814 -0.01388006 0 0 Z " fill="#F7F8EF" transform="translate(464.25341796875,299.725341796875)"/>
</svg>
