<?xml version="1.0" encoding="UTF-8"?>
<svg version="1.1" xmlns="http://www.w3.org/2000/svg" width="1000" height="1000">
<path d="M0 0 C330 0 660 0 1000 0 C1000 330 1000 660 1000 1000 C670 1000 340 1000 0 1000 C0 670 0 340 0 0 Z " fill="#1B1F23" transform="translate(0,0)"/>
<path d="M0 0 C0.99440598 -0.00428513 1.98881195 -0.00857025 3.01335144 -0.01298523 C5.11883791 -0.01871816 7.22434419 -0.01923645 9.32983398 -0.01489258 C12.49433963 -0.01176678 15.65787776 -0.03508543 18.82226562 -0.06054688 C30.82539589 -0.09910607 42.01230463 0.73166989 53.73046875 3.30078125 C56.18485126 3.78928652 58.63927692 4.277575 61.09375 4.765625 C63.41082134 5.2533614 65.7272406 5.74420682 68.04296875 6.23828125 C69.20119141 6.47740234 70.35941406 6.71652344 71.55273438 6.96289062 C79.14635922 8.57882764 86.42127173 10.68458649 93.73046875 13.30078125 C93.73046875 13.96078125 93.73046875 14.62078125 93.73046875 15.30078125 C94.42011719 15.4709375 95.10976563 15.64109375 95.8203125 15.81640625 C96.76003906 16.05875 97.69976563 16.30109375 98.66796875 16.55078125 C99.58449219 16.7828125 100.50101563 17.01484375 101.4453125 17.25390625 C109.21706965 19.73051852 116.37015412 23.59193742 123.54296875 27.42578125 C125.19514536 28.30370004 126.84748324 29.18131541 128.5 30.05859375 C129.21776611 30.44160645 129.93553223 30.82461914 130.67504883 31.21923828 C132.68038768 32.27442905 134.70004095 33.29484979 136.73046875 34.30078125 C136.73046875 34.96078125 136.73046875 35.62078125 136.73046875 36.30078125 C137.45621094 36.57277344 138.18195313 36.84476562 138.9296875 37.125 C156.28307889 44.410036 173.96531795 60.87525402 185.8984375 75.16015625 C187.75696898 77.33174528 189.70715657 79.39923741 191.67480469 81.47167969 C197.80895152 87.97429404 202.81908331 94.83278421 207.73046875 102.30078125 C208.29636719 103.12707031 208.86226562 103.95335937 209.4453125 104.8046875 C212.36141888 109.07125536 215.00063442 113.41789643 217.45703125 117.96484375 C218.49121341 119.86190183 219.55903867 121.74059128 220.63671875 123.61328125 C230.65999007 141.12708694 241.73046875 163.73092565 241.73046875 184.30078125 C242.39046875 184.30078125 243.05046875 184.30078125 243.73046875 184.30078125 C245.98436029 195.62694063 247.47781411 206.74134173 247.73046875 218.30078125 C247.7577002 219.49413086 247.78493164 220.68748047 247.81298828 221.91699219 C248.12772024 237.29895274 248.03545235 252.54760484 246.41796875 267.86328125 C246.24152832 269.55481323 246.24152832 269.55481323 246.06152344 271.28051758 C245.40938647 276.76572334 244.43738989 281.7484897 242.54467773 286.93481445 C241.57909409 289.74065285 240.84627912 292.56902526 240.1171875 295.4453125 C239.83810547 296.53521484 239.55902344 297.62511719 239.27148438 298.74804688 C238.70597095 300.97774856 238.14856937 303.20952456 237.59960938 305.44335938 C235.82478136 312.30414101 233.45298831 318.30272214 230.15063477 324.57104492 C228.2932224 328.1412233 226.79543582 331.79742447 225.35546875 335.55078125 C225.09636719 336.21207031 224.83726562 336.87335938 224.5703125 337.5546875 C223.95202046 339.13476716 223.34043355 340.71746836 222.73046875 342.30078125 C222.07046875 342.30078125 221.41046875 342.30078125 220.73046875 342.30078125 C220.47523438 343.16445313 220.22 344.028125 219.95703125 344.91796875 C218.01703054 350.26841658 214.85870098 354.86195864 211.80078125 359.62792969 C210.82752377 361.14908851 209.87174804 362.68139687 208.91796875 364.21484375 C198.72088807 380.16975878 185.54808071 396.29046634 170.9609375 408.44140625 C169.15950857 409.94312284 167.40470055 411.47322823 165.65625 413.03515625 C157.48646758 420.27915452 148.97256289 426.49816348 139.73046875 432.30078125 C138.26673828 433.23277344 138.26673828 433.23277344 136.7734375 434.18359375 C132.53242703 436.81594508 128.60418609 439.01822405 123.73046875 440.30078125 C123.73046875 440.96078125 123.73046875 441.62078125 123.73046875 442.30078125 C118.49024873 444.55352134 113.243194 446.78859068 107.98046875 448.98828125 C107.22636719 449.30861328 106.47226562 449.62894531 105.6953125 449.95898438 C104.96957031 450.26126953 104.24382812 450.56355469 103.49609375 450.875 C102.84415039 451.14916748 102.19220703 451.42333496 101.52050781 451.70581055 C99.73046875 452.30078125 99.73046875 452.30078125 96.73046875 452.30078125 C96.73046875 452.96078125 96.73046875 453.62078125 96.73046875 454.30078125 C91.03559075 456.78581892 85.98013722 458.39805129 79.73046875 457.30078125 C76.39446508 455.242396 74.90425115 453.56145485 72.73046875 450.30078125 C72.54641424 447.6423835 72.47813967 445.09048164 72.50341797 442.43286133 C72.50312592 441.63263046 72.50283386 440.8323996 72.50253296 440.00791931 C72.5039267 437.36194021 72.51948991 434.71624243 72.53515625 432.0703125 C72.53888622 430.2361415 72.54173327 428.40196851 72.54373169 426.5677948 C72.55136937 421.73937482 72.57101903 416.91107509 72.59313965 412.08270264 C72.61359516 407.1560631 72.62273278 402.22940414 72.6328125 397.30273438 C72.65426478 387.63536382 72.68840238 377.96808253 72.73046875 368.30078125 C72.07046875 368.30078125 71.41046875 368.30078125 70.73046875 368.30078125 C70.49263672 367.06714844 70.49263672 367.06714844 70.25 365.80859375 C68.26217474 356.29778337 65.50411143 347.5415717 58.73046875 340.30078125 C58.07046875 339.97078125 57.41046875 339.64078125 56.73046875 339.30078125 C56.73046875 338.64078125 56.73046875 337.98078125 56.73046875 337.30078125 C61.7678879 336.23227888 66.78806627 335.25745877 71.89453125 334.58203125 C92.8250064 331.68861093 111.92854154 324.21699144 128.73046875 311.30078125 C129.72820312 310.53636719 130.7259375 309.77195312 131.75390625 308.984375 C135.30207714 305.97988484 137.98856373 302.40821277 140.73046875 298.67578125 C141.25447266 297.9679248 141.77847656 297.26006836 142.31835938 296.53076172 C150.84530989 284.83142457 156.52058963 272.7291318 158.91796875 258.42578125 C159.08232422 257.52214844 159.24667969 256.61851562 159.41601562 255.6875 C163.69564175 231.25724561 163.70854494 206.27939745 154.71875 182.99609375 C153.73046875 180.30078125 153.73046875 180.30078125 153.73046875 178.30078125 C153.07046875 178.30078125 152.41046875 178.30078125 151.73046875 178.30078125 C151.33214844 177.553125 150.93382812 176.80546875 150.5234375 176.03515625 C149.99363281 175.0503125 149.46382812 174.06546875 148.91796875 173.05078125 C148.39589844 172.07625 147.87382813 171.10171875 147.3359375 170.09765625 C144.58032723 164.99062316 144.58032723 164.99062316 139.73046875 162.30078125 C138.65063221 158.40231627 138.74888087 156.65482988 140.65234375 153.12109375 C143.95597753 145.45905154 143.15560987 137.35454129 142.98046875 129.17578125 C142.9603665 127.53517813 142.94212233 125.89455114 142.92578125 124.25390625 C142.88209482 120.26893283 142.81327687 116.28512583 142.73046875 112.30078125 C142.07046875 112.30078125 141.41046875 112.30078125 140.73046875 112.30078125 C139.41046875 107.68078125 138.09046875 103.06078125 136.73046875 98.30078125 C128.13104447 97.88333347 120.93884294 98.103621 112.66796875 100.55078125 C111.6162146 100.85761841 111.6162146 100.85761841 110.54321289 101.1706543 C106.06193928 102.59238498 102.60773723 104.58835738 98.73046875 107.30078125 C96.84880674 107.98207267 94.96657891 108.66198636 93.078125 109.32421875 C87.03202682 111.83923463 81.09070768 115.31943193 76.078125 119.52734375 C73.73046875 121.30078125 73.73046875 121.30078125 70.35546875 121.23828125 C67.79202039 120.77477952 65.26370175 120.19530403 62.72265625 119.62109375 C45.12781795 115.80297448 27.37107087 115.11529166 9.4152832 115.00424194 C7.73897956 114.99379003 6.06269601 114.97900166 4.38647461 114.9593811 C-9.37571959 114.81988067 -23.2035298 115.59326739 -36.26953125 120.30078125 C-40.98589056 121.89076602 -44.0432208 121.86284021 -48.64453125 119.75390625 C-52.2736724 117.74248585 -55.76557983 115.5213086 -59.26953125 113.30078125 C-67.91339256 108.30272034 -76.74179556 103.39327332 -86.26953125 100.30078125 C-87.32914063 99.94628906 -88.38875 99.59179688 -89.48046875 99.2265625 C-93.69972582 98.19567186 -97.39576152 98.07322589 -101.70703125 98.17578125 C-102.43857422 98.18480469 -103.17011719 98.19382812 -103.92382812 98.203125 C-105.70587423 98.22641972 -107.48774884 98.26227935 -109.26953125 98.30078125 C-109.91732201 100.69610058 -110.56282134 103.09199873 -111.20703125 105.48828125 C-111.38943359 106.16181641 -111.57183594 106.83535156 -111.75976562 107.52929688 C-113.95660467 115.71751512 -114.45247061 122.96124053 -114.45703125 131.42578125 C-114.46927734 132.59882813 -114.48152344 133.771875 -114.49414062 134.98046875 C-114.50497677 141.48215849 -114.09622192 147.53690495 -112.70043945 153.89404297 C-112.24516084 156.43689657 -112.10844383 158.72311002 -112.26953125 161.30078125 C-113.58984375 163.1875 -113.58984375 163.1875 -115.39453125 164.98828125 C-134.08579085 185.11153251 -135.10676973 211.58570028 -134.45751953 237.53613281 C-133.76364626 251.43162083 -132.12446458 270.99909003 -123.26953125 282.30078125 C-122.71265625 283.47640625 -122.15578125 284.65203125 -121.58203125 285.86328125 C-118.82948288 291.49396956 -115.10194096 296.36531635 -111.26953125 301.30078125 C-110.37621094 302.46480469 -110.37621094 302.46480469 -109.46484375 303.65234375 C-99.78839889 315.40527892 -87.11332966 321.77791141 -73.26953125 327.30078125 C-71.55830078 328.07615234 -71.55830078 328.07615234 -69.8125 328.8671875 C-65.90915455 330.44660071 -62.12678125 331.42985071 -58.01953125 332.30078125 C-57.25463379 332.46739258 -56.48973633 332.63400391 -55.70166016 332.80566406 C-46.95032762 334.66130846 -38.11833983 336.00583365 -29.26953125 337.30078125 C-30.09547916 341.60297148 -32.14548286 343.24938515 -35.26953125 346.30078125 C-40.01178691 352.29833987 -42.19807064 359.14901554 -42.51953125 366.73828125 C-42.76703125 367.91390625 -43.01453125 369.08953125 -43.26953125 370.30078125 C-45.86505488 371.95749846 -47.37781076 372.5885612 -50.26953125 373.30078125 C-51.25179687 373.60435547 -51.25179687 373.60435547 -52.25390625 373.9140625 C-58.27211365 375.48263783 -64.33925041 375.50889808 -70.51953125 375.55078125 C-71.81540161 375.56467896 -71.81540161 375.56467896 -73.13745117 375.57885742 C-83.99367019 375.525275 -94.02618089 370.99182248 -102.125 363.74609375 C-106.78571362 358.76808495 -110.43306457 353.63169873 -113.7890625 347.71875 C-118.00539839 340.83243887 -122.99964206 335.8545336 -130.2890625 332.37109375 C-132.26953125 331.30078125 -132.26953125 331.30078125 -133.7734375 329.7421875 C-137.95973651 325.70891247 -145.73564322 326.07516295 -151.2265625 326.03515625 C-153.57619571 326.34065349 -155.21935109 327.13978035 -157.26953125 328.30078125 C-156.84773903 333.22169051 -154.82551481 335.02169805 -151.26953125 338.30078125 C-148.57547528 340.46906518 -145.7888739 342.50949063 -142.99804688 344.55078125 C-132.34260034 352.52678801 -126.32282365 365.21650305 -121.4609375 377.3125 C-116.39891455 388.86553802 -107.90269198 396.9008982 -96.62890625 402.03125 C-93.19710683 403.32815094 -89.81074634 404.35256249 -86.26953125 405.30078125 C-86.26953125 405.96078125 -86.26953125 406.62078125 -86.26953125 407.30078125 C-81.82211807 407.35044314 -77.37485445 407.38662418 -72.92724609 407.41064453 C-71.41614976 407.42066464 -69.90507263 407.43428446 -68.39404297 407.45166016 C-66.21446983 407.47608517 -64.03515441 407.48730432 -61.85546875 407.49609375 C-60.54626465 407.50656738 -59.23706055 407.51704102 -57.88818359 407.52783203 C-54.30885622 407.30324868 -51.62531993 406.49493437 -48.26953125 405.30078125 C-46.94953125 405.30078125 -45.62953125 405.30078125 -44.26953125 405.30078125 C-44.17042955 411.31473008 -44.09795209 417.3282004 -44.04980469 423.34277344 C-44.02972705 425.38745405 -44.002459 427.43207752 -43.96777344 429.4765625 C-43.91908606 432.42071662 -43.89652381 435.36410959 -43.87890625 438.30859375 C-43.85826111 439.21819855 -43.83761597 440.12780334 -43.81634521 441.06497192 C-43.81437966 446.66280385 -44.50802034 449.8701137 -48.26953125 454.30078125 C-51.62702857 457.09869568 -54.54219214 457.841003 -58.921875 457.64453125 C-67.87356537 456.33380121 -75.89469059 452.15352159 -83.84375 448.05078125 C-88.5781037 445.63232007 -93.40964787 443.45301532 -98.26953125 441.30078125 C-98.26953125 440.64078125 -98.26953125 439.98078125 -98.26953125 439.30078125 C-99.14351563 439.03394531 -100.0175 438.76710938 -100.91796875 438.4921875 C-114.44946051 433.68204183 -125.88968224 423.37549785 -136.796875 414.34375 C-138.49765128 412.93852726 -140.2134949 411.5514066 -141.94140625 410.1796875 C-144.58600864 408.04536912 -146.893474 405.73209565 -149.26953125 403.30078125 C-149.87925781 402.70136719 -150.48898437 402.10195313 -151.1171875 401.484375 C-162.34906972 390.42562391 -172.17908169 378.1313677 -180.95703125 365.05078125 C-181.39120361 364.40681396 -181.82537598 363.76284668 -182.27270508 363.09936523 C-185.26953125 358.55365891 -185.26953125 358.55365891 -185.26953125 356.30078125 C-185.92953125 356.30078125 -186.58953125 356.30078125 -187.26953125 356.30078125 C-208.26953125 318.74463152 -208.26953125 318.74463152 -208.26953125 306.30078125 C-208.92953125 306.30078125 -209.58953125 306.30078125 -210.26953125 306.30078125 C-211.09355208 302.69915192 -211.90154736 299.09409757 -212.70703125 295.48828125 C-213.05217773 293.98104492 -213.05217773 293.98104492 -213.40429688 292.44335938 C-214.89231347 285.73650199 -215.82355772 279.15624914 -216.26953125 272.30078125 C-216.92953125 272.30078125 -217.58953125 272.30078125 -218.26953125 272.30078125 C-220.71420379 260.95061583 -220.60841519 249.60024754 -220.58520508 238.04418945 C-220.58203484 234.74201734 -220.60560788 231.44073449 -220.63085938 228.13867188 C-220.66216929 217.70690645 -220.40831048 208.32564765 -217.26953125 198.30078125 C-216.55444732 194.79509437 -215.98543157 191.26678171 -215.39453125 187.73828125 C-212.6427695 172.13159359 -208.89898457 157.7224454 -202.26953125 143.30078125 C-201.30175735 141.01308534 -200.34286422 138.7216043 -199.39453125 136.42578125 C-198.98460937 135.43835938 -198.5746875 134.4509375 -198.15234375 133.43359375 C-197.86101562 132.72976563 -197.5696875 132.0259375 -197.26953125 131.30078125 C-196.60953125 131.30078125 -195.94953125 131.30078125 -195.26953125 131.30078125 C-195.01945312 130.29789063 -194.769375 129.295 -194.51171875 128.26171875 C-193.34080326 124.18905808 -191.49639187 120.58993554 -189.39453125 116.92578125 C-189.00378418 116.2402417 -188.61303711 115.55470215 -188.21044922 114.84838867 C-178.94039284 98.92462022 -167.59039299 84.04801737 -154.26953125 71.30078125 C-151.8194285 68.86658826 -149.38543036 66.4202404 -146.98046875 63.94140625 C-131.64508209 48.24699716 -110.86984058 30.96951915 -89.26953125 25.30078125 C-89.26953125 24.64078125 -89.26953125 23.98078125 -89.26953125 23.30078125 C-81.99038425 20.14171324 -74.72193213 17.03332824 -67.26953125 14.30078125 C-66.56747559 14.00397461 -65.86541992 13.70716797 -65.14208984 13.40136719 C-58.60645364 10.64365746 -52.04367639 8.79035033 -45.14453125 7.17578125 C-44.05229248 6.91571289 -42.96005371 6.65564453 -41.8347168 6.38769531 C-34.40086134 4.66666706 -27.07197976 3.41389682 -19.4765625 2.72265625 C-16.31675674 2.43854302 -16.31675674 2.43854302 -13.7109375 1.29321289 C-9.09375288 -0.03828934 -4.78187962 -0.00461791 0 0 Z " fill="#FDFDFD" transform="translate(486.26953125,265.69921875)"/>
<path d="M0 0 C0.66 0.33 1.32 0.66 2 1 C-4.6 7.6 -11.2 14.2 -18 21 C-18.66 20.67 -19.32 20.34 -20 20 C-15.93271189 15.10654399 -11.72019588 10.72593464 -6.8671875 6.609375 C-4.44537851 4.52195805 -2.22485957 2.29438644 0 0 Z " fill="#DBDBDC" transform="translate(347,322)"/>
</svg>
