<?xml version="1.0" encoding="UTF-8"?>
<svg version="1.1" xmlns="http://www.w3.org/2000/svg" width="1000" height="1000">
<path d="M0 0 C330 0 660 0 1000 0 C1000 330 1000 660 1000 1000 C670 1000 340 1000 0 1000 C0 670 0 340 0 0 Z " fill="#1B1F23" transform="translate(0,0)"/>
<path d="M0 0 C154.77 0 309.54 0 469 0 C469 116.16 469 232.32 469 352 C314.23 352 159.46 352 0 352 C0 235.84 0 119.68 0 0 Z " fill="#FCFCFC" transform="translate(266,336)"/>
<path d="M0 0 C154.77 0 309.54 0 469 0 C469 116.16 469 232.32 469 352 C314.23 352 159.46 352 0 352 C0 235.84 0 119.68 0 0 Z M46 47 C46 132.14 46 217.28 46 305 C170.08 305 294.16 305 422 305 C422 219.86 422 134.72 422 47 C297.92 47 173.84 47 46 47 Z " fill="#FCFCFC" transform="translate(266,336)"/>
<path d="M0 0 C124.08 0 248.16 0 376 0 C376 85.14 376 170.28 376 258 C251.92 258 127.84 258 0 258 C0 172.86 0 87.72 0 0 Z M71 24 C70.34 28.29 69.68 32.58 69 37 C65.86114725 47.11408109 58.06324473 57.02614626 48.78515625 62.24609375 C46.88096425 63.21324926 44.94312662 64.11366154 43 65 C43 65.66 43 66.32 43 67 C36.73 67.99 30.46 68.98 24 70 C24 108.94 24 147.88 24 188 C28.95 188.99 33.9 189.98 39 191 C52.49691063 195.80178551 59.76481007 202.06124907 66 215 C66.66 215 67.32 215 68 215 C68.05534912 215.57032959 68.11069824 216.14065918 68.16772461 216.72827148 C68.41973743 219.29848753 68.67852728 221.86797631 68.9375 224.4375 C69.06801758 225.78424805 69.06801758 225.78424805 69.20117188 227.15820312 C69.33168945 228.43920898 69.33168945 228.43920898 69.46484375 229.74609375 C69.543396 230.53685303 69.62194824 231.3276123 69.70288086 232.14233398 C69.81551499 234.01103348 69.81551499 234.01103348 71 235 C74.00649119 235.10023005 76.99008892 235.13438009 79.99707031 235.12698364 C80.95277042 235.12854363 81.90847054 235.13010362 82.89313126 235.13171089 C86.12147782 235.13572531 89.34977802 235.13252954 92.578125 235.12939453 C94.88203967 235.13074838 97.18595412 235.13252821 99.48986816 235.13470459 C105.76654079 235.13928092 112.04319707 235.13748854 118.31987 235.1343255 C124.87242682 235.13180293 131.42498219 235.13413915 137.97753906 235.13571167 C149.68976307 235.1378509 161.40198017 235.13453268 173.11420298 235.12945233 C183.74410777 235.12498429 194.37400165 235.12576022 205.00390625 235.13037109 C217.33356293 235.13571672 229.66321265 235.13771777 241.99287033 235.13475883 C248.52491264 235.13319558 255.05694742 235.13300359 261.58898926 235.13629532 C267.72841647 235.13917279 273.86782296 235.13720063 280.00724792 235.13140106 C282.26763372 235.1300728 284.52802125 235.1304687 286.78840637 235.13266373 C289.85993812 235.13537263 292.93140231 235.1319973 296.00292969 235.12698364 C297.3632601 235.13032973 297.3632601 235.13032973 298.75107193 235.13374341 C302.6905312 235.51489822 302.6905312 235.51489822 306 234 C306.30176981 232.2132837 306.56561289 230.42012309 306.8125 228.625 C308.47005214 218.31134226 311.54434932 209.45565068 319 202 C319 201.34 319 200.68 319 200 C319.56332031 199.731875 320.12664062 199.46375 320.70703125 199.1875 C323.14062476 197.92717218 325.38399818 196.48373708 327.6875 195 C332.53880258 192.073592 336.42119489 190.92980085 342 190 C346.95 189.01 346.95 189.01 352 188 C352 149.06 352 110.12 352 70 C346.39 69.01 340.78 68.02 335 67 C333.68 66.67 332.36 66.34 331 66 C331 65.34 331 64.68 331 64 C330.34 63.814375 329.68 63.62875 329 63.4375 C317.74248907 58.04327601 311.98881721 47.95876956 307.98046875 36.66015625 C307 33 307 33 306 24 C228.45 24 150.9 24 71 24 Z " fill="#202427" transform="translate(312,383)"/>
<path d="M0 0 C11.6167609 8.82152477 17.70333006 18.44013788 20 33 C20.27118762 36.27664218 20.32721581 39.53341857 20.3359375 42.8203125 C20.3459227 44.17381302 20.3459227 44.17381302 20.35610962 45.55465698 C20.36616269 47.45210761 20.37092894 49.34959308 20.37060547 51.24707031 C20.3749582 54.09762267 20.41130041 56.94659746 20.44921875 59.796875 C20.52591433 72.1733893 20.56249719 86.51264319 13 97 C12.34 97 11.68 97 11 97 C10.62875 97.8353125 10.62875 97.8353125 10.25 98.6875 C6.68558658 105.28166482 1.64754682 108.76328999 -5 112 C-13.68465316 114.22379755 -22.2884947 113.32370823 -30.0625 108.875 C-39.99535304 102.14316405 -46.65062465 90.90344567 -49.17578125 79.25390625 C-50.41080071 71.66142454 -50.3720629 64.00493145 -50.37060547 56.33154297 C-50.37496847 53.76852397 -50.41136549 51.20724619 -50.44921875 48.64453125 C-50.54592449 34.55642524 -49.2112848 21.32988031 -40 10 C-39.525625 9.36578125 -39.05125 8.7315625 -38.5625 8.078125 C-29.29400279 -3.70898558 -13.07158213 -8.48284638 0 0 Z " fill="#1F2327" transform="translate(503,457)"/>
<path d="M0 0 C10.70228454 7.72707764 16.27657527 17.2109447 19 30 C19.80522076 35.83776991 20.17803783 41.626636 20.23828125 47.515625 C20.246353 48.29331238 20.25442474 49.07099976 20.26274109 49.87225342 C20.27646069 51.50579683 20.28723601 53.13936744 20.29516602 54.77294922 C20.3066725 56.41724258 20.32710343 58.06149898 20.35668945 59.70556641 C20.64698135 75.90677328 18.24122787 91.76889261 6.5625 103.9375 C2.47206832 107.78972019 -1.16100223 111 -7 111 C-7 111.66 -7 112.32 -7 113 C-17.03696372 113.57445261 -25.53680562 113.21267778 -33.73046875 106.89453125 C-39.79918455 101.25609367 -43.11060713 95.66556816 -46 88 C-46.35143066 87.20770996 -46.70286133 86.41541992 -47.06494141 85.59912109 C-50.83204889 76.23902125 -50.60736274 66.88393886 -50.52148438 56.95507812 C-50.50004125 54.00567405 -50.52136516 51.05870516 -50.546875 48.109375 C-50.56190897 38.10767217 -50.27710134 29.24611605 -46 20 C-45.51917969 18.90042969 -45.03835938 17.80085938 -44.54296875 16.66796875 C-39.86842383 8.11368626 -34.74748103 2.37374051 -26 -2 C-25.236875 -2.4125 -24.47375 -2.825 -23.6875 -3.25 C-15.46783066 -5.54386121 -7.42310253 -4.00579107 0 0 Z " fill="#1E2226" transform="translate(597,457)"/>
<path d="M0 0 C0 38.61 0 77.22 0 117 C-7.59 117 -15.18 117 -23 117 C-23 86.31 -23 55.62 -23 24 C-27.455 25.485 -27.455 25.485 -32 27 C-32 27.66 -32 28.32 -32 29 C-33.37332284 29.62867668 -34.74875833 30.25273891 -36.125 30.875 C-36.89070313 31.22304688 -37.65640625 31.57109375 -38.4453125 31.9296875 C-41.255009 33.10683863 -44.10098632 34.06727386 -47 35 C-47.17432891 31.25058747 -47.28085841 27.50221491 -47.375 23.75 C-47.42527344 22.68652344 -47.47554688 21.62304688 -47.52734375 20.52734375 C-47.58308566 17.57302277 -47.56313945 14.90185132 -47 12 C-43.29751106 8.46206613 -40.04911356 7.48086796 -35 7 C-35 6.34 -35 5.68 -35 5 C-24.01264203 -2.69115058 -13.99005006 0 0 0 Z " fill="#1D2125" transform="translate(430,453)"/>
<path d="M0 0 C3.3304589 1.65906193 6.29447878 3.58895755 8 7 C8.09072287 8.7566923 8.11754144 10.5168501 8.11352539 12.27587891 C8.11344986 13.3768692 8.11337433 14.4778595 8.11329651 15.61221313 C8.10813522 16.80494843 8.10297394 17.99768372 8.09765625 19.2265625 C8.0962413 20.44451508 8.09482635 21.66246765 8.09336853 22.91732788 C8.08775639 26.8199099 8.07520179 30.72243523 8.0625 34.625 C8.05748657 37.26562417 8.05292339 39.90624924 8.04882812 42.546875 C8.03778301 49.03126945 8.02103302 55.51563068 8 62 C7.34 62 6.68 62 6 62 C5.95875 62.5775 5.9175 63.155 5.875 63.75 C4.50863689 67.26350514 2.26372071 68.27577019 -1 70 C-5.12301563 70.68716927 -6.68856453 70.17301971 -10.375 68.125 C-11.674375 67.073125 -11.674375 67.073125 -13 66 C-13 65.34 -13 64.68 -13 64 C-13.66 64 -14.32 64 -15 64 C-16.00297674 60.99106979 -16.14395727 58.92891023 -16.17700195 55.78173828 C-16.18983719 54.71698273 -16.20267242 53.65222717 -16.21589661 52.5552063 C-16.22328354 51.40519135 -16.23067047 50.25517639 -16.23828125 49.0703125 C-16.246353 47.88782928 -16.25442474 46.70534607 -16.26274109 45.48703003 C-16.2765781 42.98371852 -16.28730196 40.48038818 -16.29516602 37.97705078 C-16.31240056 34.14709878 -16.35629436 30.31800503 -16.40039062 26.48828125 C-16.41051563 24.05729802 -16.41903233 21.62630745 -16.42578125 19.1953125 C-16.44328934 18.04934601 -16.46079742 16.90337952 -16.47883606 15.72268677 C-16.45714031 7.7798026 -16.45714031 7.7798026 -14.16088867 3.86279297 C-9.45472015 -0.19415719 -6.06007969 -1.0133577 0 0 Z " fill="#F6F6F6" transform="translate(586,477)"/>
<path d="M0 0 C3.75212276 2.01502889 5.63644095 3.45466142 8 7 C8.26069641 9.41513062 8.26069641 9.41513062 8.2746582 12.31005859 C8.28895622 13.93722305 8.28895622 13.93722305 8.30354309 15.59725952 C8.30263168 16.76914825 8.30172028 17.94103699 8.30078125 19.1484375 C8.30506638 20.35311676 8.3093515 21.55779602 8.31376648 22.79898071 C8.31951411 25.34937918 8.32000688 27.89979405 8.31567383 30.45019531 C8.3125182 34.35249855 8.33595391 38.25404079 8.36132812 42.15625 C8.36360149 44.63281154 8.36430444 47.10937513 8.36328125 49.5859375 C8.372491 50.75377777 8.38170074 51.92161804 8.39118958 53.12484741 C8.38496078 54.21592804 8.37873199 55.30700867 8.37231445 56.43115234 C8.37294388 57.38806976 8.3735733 58.34498718 8.3742218 59.3309021 C7.92468274 62.53719247 6.89949654 64.39620994 5 67 C0.94184834 69.61525329 -2.19144587 70.70124748 -7 70 C-10.97667805 67.85871182 -13.37242973 66.22100751 -15 62 C-15.27415466 59.47134399 -15.27415466 59.47134399 -15.30639648 56.59228516 C-15.32238388 55.51081207 -15.33837128 54.42933899 -15.35484314 53.31509399 C-15.36288719 51.5697084 -15.36288719 51.5697084 -15.37109375 49.7890625 C-15.38012222 48.58816986 -15.3891507 47.38727722 -15.39845276 46.1499939 C-15.41295945 43.60978694 -15.42184302 41.06954257 -15.42553711 38.52929688 C-15.43743414 34.64649414 -15.48662055 30.7652799 -15.53710938 26.8828125 C-15.54657349 24.41407025 -15.55380858 21.94531825 -15.55859375 19.4765625 C-15.57812607 18.31702057 -15.59765839 17.15747864 -15.61778259 15.96279907 C-15.56754794 6.97191914 -15.56754794 6.97191914 -12.59008789 3.28271484 C-8.58726639 -0.24508052 -5.23901654 -0.72060822 0 0 Z " fill="#FDFDFD" transform="translate(492,477)"/>
<path d="M0 0 C-0.97641146 2.17814864 -1.70512035 3.75116249 -3.54719543 5.30561829 C-5.56105496 7.65434904 -5.39662068 9.23005467 -5.43237305 12.29760742 C-5.45216721 13.37850143 -5.47196136 14.45939545 -5.49235535 15.57304382 C-5.49874527 16.73874405 -5.50513519 17.90444427 -5.51171875 19.10546875 C-5.52966995 20.29981033 -5.54762115 21.49415192 -5.56611633 22.72468567 C-5.62037033 26.54558768 -5.65416429 30.36636371 -5.6875 34.1875 C-5.72065965 36.77540822 -5.75514802 39.36329977 -5.79101562 41.95117188 C-5.87610557 48.30066828 -5.94439153 54.65018069 -6 61 C-6.33 61 -6.66 61 -7 61 C-7.12689674 53.27719691 -7.21439284 45.55466321 -7.2746582 37.83105469 C-7.29978429 35.20432488 -7.33389085 32.57766486 -7.37719727 29.95117188 C-7.43792806 26.1730018 -7.46623015 22.39575704 -7.48828125 18.6171875 C-7.51408768 17.44509735 -7.5398941 16.2730072 -7.56648254 15.06539917 C-7.5696072 5.95848627 -7.5696072 5.95848627 -4.59448242 2.21142578 C-2 0 -2 0 0 0 Z " fill="#E8E9E9" transform="translate(484,478)"/>
<path d="M0 0 C0.66 0.33 1.32 0.66 2 1 C-2.29 5.29 -6.58 9.58 -11 14 C-11 10.30159372 -10.17133056 9.68584567 -7.75 7 C-7.14671875 6.319375 -6.5434375 5.63875 -5.921875 4.9375 C-4.06233388 3.06284066 -2.15205789 1.52358081 0 0 Z " fill="#4D5154" transform="translate(473,457)"/>
<path d="M0 0 C-1.30574169 2.91280837 -2.7074208 4.80294493 -5 7 C-5.66 7.99 -6.32 8.98 -7 10 C-6.67506385 6.4257023 -6.36129314 4.44287547 -4.0625 1.625 C-2 0 -2 0 0 0 Z " fill="#DCDCDD" transform="translate(484,478)"/>
</svg>
