<?xml version="1.0" encoding="UTF-8"?>
<!DOCTYPE svg PUBLIC "-//W3C//DTD SVG 1.1//EN" "http://www.w3.org/Graphics/SVG/1.1/DTD/svg11.dtd">
<svg xmlns="http://www.w3.org/2000/svg" version="1.1" width="1000px" height="1000px" style="shape-rendering:geometricPrecision; text-rendering:geometricPrecision; image-rendering:optimizeQuality; fill-rule:evenodd; clip-rule:evenodd" xmlns:xlink="http://www.w3.org/1999/xlink">
<g><path style="opacity:1" fill="#1b1f23" d="M -0.5,-0.5 C 332.833,-0.5 666.167,-0.5 999.5,-0.5C 999.5,332.833 999.5,666.167 999.5,999.5C 666.167,999.5 332.833,999.5 -0.5,999.5C -0.5,666.167 -0.5,332.833 -0.5,-0.5 Z"/></g>
<g><path style="opacity:1" fill="#cececf" d="M 512.5,252.5 C 497.826,252.587 483.16,252.92 468.5,253.5C 483.141,251.548 497.808,251.215 512.5,252.5 Z"/></g>
<g><path style="opacity:1" fill="#fcfcfc" d="M 512.5,252.5 C 519.191,252.454 525.857,252.788 532.5,253.5C 532.611,254.117 532.944,254.617 533.5,255C 540.163,255.944 546.829,256.777 553.5,257.5C 553.833,257.5 554.167,257.5 554.5,257.5C 560.308,259.455 566.308,261.121 572.5,262.5C 576.833,263.833 581.167,265.167 585.5,266.5C 587.033,268.245 589.033,269.245 591.5,269.5C 614.971,278.901 636.638,291.401 656.5,307C 681.204,327.513 701.204,351.679 716.5,379.5C 716.427,381.027 717.094,382.027 718.5,382.5C 728.555,400.315 735.889,419.315 740.5,439.5C 739.965,444.312 740.965,448.645 743.5,452.5C 744.707,457.414 745.374,462.414 745.5,467.5C 747.227,482.437 747.894,497.437 747.5,512.5C 746.649,518.34 745.982,524.34 745.5,530.5C 744.542,539.914 743.042,549.247 741,558.5C 737.177,570.445 733.343,582.445 729.5,594.5C 728.094,594.973 727.427,595.973 727.5,597.5C 704.456,649.545 668.122,689.545 618.5,717.5C 616.326,717.75 614.659,718.75 613.5,720.5C 608.09,722.852 602.756,725.185 597.5,727.5C 595.033,727.755 593.033,728.755 591.5,730.5C 584.067,732.852 576.733,735.185 569.5,737.5C 567.102,737.259 565.102,737.926 563.5,739.5C 562.833,739.5 562.167,739.5 561.5,739.5C 558.848,739.41 556.515,740.076 554.5,741.5C 540.726,744.883 526.726,746.883 512.5,747.5C 500.148,747.649 487.815,747.315 475.5,746.5C 463.153,745.795 451.153,743.795 439.5,740.5C 437.898,738.926 435.898,738.259 433.5,738.5C 425.09,736.084 416.757,733.418 408.5,730.5C 406.824,728.166 404.491,727.166 401.5,727.5C 394.314,724.406 387.314,721.072 380.5,717.5C 380.027,716.094 379.027,715.427 377.5,715.5C 339.662,693.497 309.162,663.83 286,626.5C 279.41,615.321 273.91,603.655 269.5,591.5C 269.245,589.033 268.245,587.033 266.5,585.5C 264.167,577.5 261.833,569.5 259.5,561.5C 259.324,558.273 258.657,555.273 257.5,552.5C 256.325,548.958 255.659,545.291 255.5,541.5C 254.684,531.67 253.684,522.003 252.5,512.5C 252.272,496.457 252.938,480.457 254.5,464.5C 255.817,459.263 256.483,453.93 256.5,448.5C 257.301,446.958 257.634,445.292 257.5,443.5C 258.946,440.746 259.946,437.746 260.5,434.5C 261.433,429.372 262.766,424.372 264.5,419.5C 266.584,416.947 267.917,413.947 268.5,410.5C 271.609,401.613 275.276,392.946 279.5,384.5C 280.906,384.027 281.573,383.027 281.5,381.5C 289.788,365.906 299.788,351.573 311.5,338.5C 313.587,337.415 314.92,335.749 315.5,333.5C 341.214,304.477 372.214,283.144 408.5,269.5C 414.519,267.724 420.186,265.391 425.5,262.5C 430.475,261.007 435.475,259.673 440.5,258.5C 450.021,257.192 459.355,255.525 468.5,253.5C 483.16,252.92 497.826,252.587 512.5,252.5 Z"/></g>
<g><path style="opacity:1" fill="#9d9fa1" d="M 532.5,253.5 C 539.774,254.104 546.774,255.438 553.5,257.5C 546.829,256.777 540.163,255.944 533.5,255C 532.944,254.617 532.611,254.117 532.5,253.5 Z"/></g>
<g><path style="opacity:1" fill="#939597" d="M 468.5,253.5 C 459.355,255.525 450.021,257.192 440.5,258.5C 442.877,257.113 445.543,256.279 448.5,256C 455.119,254.709 461.785,253.876 468.5,253.5 Z"/></g>
<g><path style="opacity:1" fill="#46494c" d="M 554.5,257.5 C 557.187,257.336 559.854,257.503 562.5,258C 564.974,259.267 567.641,260.101 570.5,260.5C 571.713,260.747 572.38,261.414 572.5,262.5C 566.308,261.121 560.308,259.455 554.5,257.5 Z"/></g>
<g><path style="opacity:1" fill="#aeafb0" d="M 425.5,262.5 C 420.186,265.391 414.519,267.724 408.5,269.5C 409.058,268.21 410.058,267.377 411.5,267C 416.154,265.393 420.82,263.893 425.5,262.5 Z"/></g>
<g><path style="opacity:1" fill="#7d8082" d="M 585.5,266.5 C 587.967,266.755 589.967,267.755 591.5,269.5C 589.033,269.245 587.033,268.245 585.5,266.5 Z"/></g>
<g><path style="opacity:1" fill="#76797b" d="M 531.5,289.5 C 526.113,288.97 520.78,288.97 515.5,289.5C 509.192,293.66 502.525,297.16 495.5,300C 492.572,301.287 490.238,303.287 488.5,306C 478.054,312.271 467.721,318.771 457.5,325.5C 451.292,331.201 444.626,336.368 437.5,341C 433.68,345.912 429.013,349.745 423.5,352.5C 416.961,359.871 409.627,366.371 401.5,372C 400.36,373.973 399.027,375.807 397.5,377.5C 387.768,385.737 378.601,394.403 370,403.5C 366.116,410.057 361.116,415.723 355,420.5C 352.475,424.896 349.475,428.896 346,432.5C 345.517,433.448 345.351,434.448 345.5,435.5C 343.61,435.297 342.11,435.963 341,437.5C 333.986,447.691 326.653,457.691 319,467.5C 317.991,469.025 317.491,470.692 317.5,472.5C 315.408,472.561 313.908,473.561 313,475.5C 305.656,487.594 298.322,499.594 291,511.5C 289.639,517.407 289.139,523.407 289.5,529.5C 288.527,527.052 288.194,524.385 288.5,521.5C 288.5,506.833 288.5,492.167 288.5,477.5C 300.156,461.667 311.656,445.667 323,429.5C 356.525,388.972 393.358,352.472 433.5,320C 448.41,309.724 463.077,299.224 477.5,288.5C 493.122,287.364 508.789,287.198 524.5,288C 527.036,288.186 529.369,288.686 531.5,289.5 Z"/></g>
<g><path style="opacity:1" fill="#828486" d="M 477.5,288.5 C 463.077,299.224 448.41,309.724 433.5,320C 393.358,352.472 356.525,388.972 323,429.5C 311.656,445.667 300.156,461.667 288.5,477.5C 288.5,476.5 288.5,475.5 288.5,474.5C 290.348,460.593 293.348,446.926 297.5,433.5C 299.053,430.76 300.886,428.093 303,425.5C 304.011,424.663 305.178,424.33 306.5,424.5C 308.765,420.208 311.098,415.874 313.5,411.5C 318.327,407.681 321.994,403.014 324.5,397.5C 325.552,397.649 326.552,397.483 327.5,397C 328.333,394.833 329.833,393.333 332,392.5C 332.561,390.275 333.561,388.275 335,386.5C 337.785,384.289 340.118,381.623 342,378.5C 347.333,375.833 351.333,371.833 354,366.5C 358.167,362.333 362.333,358.167 366.5,354C 371.306,351.694 374.973,348.194 377.5,343.5C 380.818,340.517 384.151,337.517 387.5,334.5C 394.549,329.96 400.882,324.46 406.5,318C 412.011,315.048 417.011,311.382 421.5,307C 422.448,306.517 423.448,306.351 424.5,306.5C 424.351,305.448 424.517,304.448 425,303.5C 427.352,301.97 429.519,300.303 431.5,298.5C 442.608,294.904 453.941,291.737 465.5,289C 469.486,288.501 473.486,288.334 477.5,288.5 Z"/></g>
<g><path style="opacity:1" fill="#6a6d70" d="M 531.5,289.5 C 536.273,291.022 541.273,292.022 546.5,292.5C 547.492,292.328 548.158,292.662 548.5,293.5C 512.737,310.427 479.404,331.26 448.5,356C 405.234,391.602 367.067,432.102 334,477.5C 326.303,489.032 318.803,500.699 311.5,512.5C 304.549,524.017 298.549,536.017 293.5,548.5C 292.662,548.158 292.328,547.492 292.5,546.5C 292.044,540.939 291.044,535.606 289.5,530.5C 289.5,530.167 289.5,529.833 289.5,529.5C 289.139,523.407 289.639,517.407 291,511.5C 298.322,499.594 305.656,487.594 313,475.5C 313.908,473.561 315.408,472.561 317.5,472.5C 317.491,470.692 317.991,469.025 319,467.5C 326.653,457.691 333.986,447.691 341,437.5C 342.11,435.963 343.61,435.297 345.5,435.5C 345.351,434.448 345.517,433.448 346,432.5C 349.475,428.896 352.475,424.896 355,420.5C 361.116,415.723 366.116,410.057 370,403.5C 378.601,394.403 387.768,385.737 397.5,377.5C 399.027,375.807 400.36,373.973 401.5,372C 409.627,366.371 416.961,359.871 423.5,352.5C 429.013,349.745 433.68,345.912 437.5,341C 444.626,336.368 451.292,331.201 457.5,325.5C 467.721,318.771 478.054,312.271 488.5,306C 490.238,303.287 492.572,301.287 495.5,300C 502.525,297.16 509.192,293.66 515.5,289.5C 520.78,288.97 526.113,288.97 531.5,289.5 Z"/></g>
<g><path style="opacity:1" fill="#c1c2c3" d="M 531.5,289.5 C 536.911,289.125 541.911,290.125 546.5,292.5C 541.273,292.022 536.273,291.022 531.5,289.5 Z"/></g>
<g><path style="opacity:1" fill="#606365" d="M 548.5,293.5 C 556.768,294.567 564.768,296.567 572.5,299.5C 573.59,300.857 574.924,301.857 576.5,302.5C 573.393,302.351 570.393,302.851 567.5,304C 458.357,357.14 374.524,436.974 316,543.5C 311.26,552.595 306.927,561.928 303,571.5C 302.506,573.134 302.34,574.801 302.5,576.5C 301.833,576.5 301.5,576.167 301.5,575.5C 301.245,573.033 300.245,571.033 298.5,569.5C 296.052,562.706 294.385,555.706 293.5,548.5C 298.549,536.017 304.549,524.017 311.5,512.5C 318.803,500.699 326.303,489.032 334,477.5C 367.067,432.102 405.234,391.602 448.5,356C 479.404,331.26 512.737,310.427 548.5,293.5 Z"/></g>
<g><path style="opacity:1" fill="#abadaf" d="M 572.5,299.5 C 574.967,299.755 576.967,300.755 578.5,302.5C 577.833,302.5 577.167,302.5 576.5,302.5C 574.924,301.857 573.59,300.857 572.5,299.5 Z"/></g>
<g><path style="opacity:1" fill="#54575a" d="M 576.5,302.5 C 577.167,302.5 577.833,302.5 578.5,302.5C 586.136,305.32 593.469,308.654 600.5,312.5C 592.002,314.611 583.669,317.444 575.5,321C 472.477,371.686 392.311,446.853 335,546.5C 330.529,556.437 325.862,566.104 321,575.5C 317.561,583.026 314.728,590.692 312.5,598.5C 307.835,591.868 304.502,584.535 302.5,576.5C 302.34,574.801 302.506,573.134 303,571.5C 306.927,561.928 311.26,552.595 316,543.5C 374.524,436.974 458.357,357.14 567.5,304C 570.393,302.851 573.393,302.351 576.5,302.5 Z"/></g>
<g><path style="opacity:1" fill="#8f9193" d="M 431.5,298.5 C 429.519,300.303 427.352,301.97 425,303.5C 424.517,304.448 424.351,305.448 424.5,306.5C 423.448,306.351 422.448,306.517 421.5,307C 417.011,311.382 412.011,315.048 406.5,318C 400.882,324.46 394.549,329.96 387.5,334.5C 384.151,337.517 380.818,340.517 377.5,343.5C 374.973,348.194 371.306,351.694 366.5,354C 362.333,358.167 358.167,362.333 354,366.5C 351.333,371.833 347.333,375.833 342,378.5C 340.118,381.623 337.785,384.289 335,386.5C 333.561,388.275 332.561,390.275 332,392.5C 329.833,393.333 328.333,394.833 327.5,397C 326.552,397.483 325.552,397.649 324.5,397.5C 321.994,403.014 318.327,407.681 313.5,411.5C 311.098,415.874 308.765,420.208 306.5,424.5C 305.178,424.33 304.011,424.663 303,425.5C 300.886,428.093 299.053,430.76 297.5,433.5C 319.693,370.133 362.026,325.633 424.5,300C 426.74,299.023 429.073,298.523 431.5,298.5 Z"/></g>
<g><path style="opacity:1" fill="#494c4f" d="M 600.5,312.5 C 607.188,315.508 613.188,319.508 618.5,324.5C 585.873,335.314 555.207,350.147 526.5,369C 446.998,421.493 385.498,489.993 342,574.5C 334.781,588.606 328.948,603.273 324.5,618.5C 319.315,612.625 315.315,605.958 312.5,598.5C 314.728,590.692 317.561,583.026 321,575.5C 325.862,566.104 330.529,556.437 335,546.5C 392.311,446.853 472.477,371.686 575.5,321C 583.669,317.444 592.002,314.611 600.5,312.5 Z"/></g>
<g><path style="opacity:1" fill="#3d4044" d="M 618.5,324.5 C 625.026,327.69 630.692,332.024 635.5,337.5C 620.794,341.931 606.46,347.431 592.5,354C 477.828,411.003 394.995,498.169 344,615.5C 341.73,622.143 339.564,628.809 337.5,635.5C 331.957,630.742 327.624,625.075 324.5,618.5C 328.948,603.273 334.781,588.606 342,574.5C 385.498,489.993 446.998,421.493 526.5,369C 555.207,350.147 585.873,335.314 618.5,324.5 Z"/></g>
<g><path style="opacity:1" fill="#9fa1a2" d="M 315.5,333.5 C 314.92,335.749 313.587,337.415 311.5,338.5C 312.08,336.251 313.413,334.585 315.5,333.5 Z"/></g>
<g><path style="opacity:1" fill="#323639" d="M 635.5,337.5 C 641.727,341.055 647.06,345.722 651.5,351.5C 621.265,360.452 592.598,372.952 565.5,389C 478.415,441.753 412.582,513.919 368,605.5C 361.611,620.592 356.111,635.925 351.5,651.5C 345.722,647.06 341.055,641.727 337.5,635.5C 339.564,628.809 341.73,622.143 344,615.5C 394.995,498.169 477.828,411.003 592.5,354C 606.46,347.431 620.794,341.931 635.5,337.5 Z"/></g>
<g><path style="opacity:1" fill="#272a2e" d="M 651.5,351.5 C 656.533,356.532 661.199,361.865 665.5,367.5C 662.184,366.385 658.851,366.552 655.5,368C 544.18,409.623 458.68,482.123 399,585.5C 391.242,599.428 384.242,613.761 378,628.5C 374.226,639.798 370.393,650.964 366.5,662C 367.074,663.607 367.74,665.107 368.5,666.5C 362.229,662.196 356.563,657.196 351.5,651.5C 356.111,635.925 361.611,620.592 368,605.5C 412.582,513.919 478.415,441.753 565.5,389C 592.598,372.952 621.265,360.452 651.5,351.5 Z"/></g>
<g><path style="opacity:1" fill="#1b1f23" d="M 665.5,367.5 C 672.046,374.901 677.879,382.901 683,391.5C 686.84,397.856 690.007,404.523 692.5,411.5C 692.427,413.027 693.094,414.027 694.5,414.5C 699.698,426.429 703.698,438.762 706.5,451.5C 706.829,459.461 708.162,467.128 710.5,474.5C 713.077,492.152 713.077,509.819 710.5,527.5C 709.778,527.918 709.278,528.584 709,529.5C 708.358,533.491 707.858,537.491 707.5,541.5C 704.624,554.665 700.957,567.665 696.5,580.5C 695.094,580.973 694.427,581.973 694.5,583.5C 667.256,643.6 622.256,683.6 559.5,703.5C 554.917,704.34 550.584,705.674 546.5,707.5C 518.939,713.101 491.272,713.768 463.5,709.5C 463.389,708.883 463.056,708.383 462.5,708C 458.23,706.925 453.897,706.425 449.5,706.5C 438.526,703.344 427.526,699.844 416.5,696C 399.026,688.318 383.026,678.484 368.5,666.5C 367.74,665.107 367.074,663.607 366.5,662C 370.393,650.964 374.226,639.798 378,628.5C 384.242,613.761 391.242,599.428 399,585.5C 458.68,482.123 544.18,409.623 655.5,368C 658.851,366.552 662.184,366.385 665.5,367.5 Z"/></g>
<g><path style="opacity:1" fill="#8f9193" d="M 716.5,379.5 C 717.906,379.973 718.573,380.973 718.5,382.5C 717.094,382.027 716.427,381.027 716.5,379.5 Z"/></g>
<g><path style="opacity:1" fill="#75787a" d="M 281.5,381.5 C 281.573,383.027 280.906,384.027 279.5,384.5C 279.427,382.973 280.094,381.973 281.5,381.5 Z"/></g>
<g><path style="opacity:1" fill="#838688" d="M 692.5,411.5 C 693.906,411.973 694.573,412.973 694.5,414.5C 693.094,414.027 692.427,413.027 692.5,411.5 Z"/></g>
<g><path style="opacity:1" fill="#939597" d="M 268.5,410.5 C 267.917,413.947 266.584,416.947 264.5,419.5C 265.083,416.053 266.416,413.053 268.5,410.5 Z"/></g>
<g><path style="opacity:1" fill="#5f6265" d="M 260.5,434.5 C 259.946,437.746 258.946,440.746 257.5,443.5C 257.446,440.008 258.446,437.008 260.5,434.5 Z"/></g>
<g><path style="opacity:1" fill="#b5b7b8" d="M 740.5,439.5 C 741.66,443.681 742.66,448.015 743.5,452.5C 740.965,448.645 739.965,444.312 740.5,439.5 Z"/></g>
<g><path style="opacity:1" fill="#919294" d="M 256.5,448.5 C 256.483,453.93 255.817,459.263 254.5,464.5C 254.167,464.5 253.833,464.5 253.5,464.5C 254.087,458.963 255.087,453.63 256.5,448.5 Z"/></g>
<g><path style="opacity:1" fill="#4d5154" d="M 706.5,451.5 C 708.838,458.872 710.171,466.539 710.5,474.5C 708.162,467.128 706.829,459.461 706.5,451.5 Z"/></g>
<g><path style="opacity:1" fill="#d2d3d4" d="M 253.5,464.5 C 253.833,464.5 254.167,464.5 254.5,464.5C 252.938,480.457 252.272,496.457 252.5,512.5C 251.161,496.622 251.495,480.622 253.5,464.5 Z"/></g>
<g><path style="opacity:1" fill="#9d9fa1" d="M 288.5,474.5 C 288.5,475.5 288.5,476.5 288.5,477.5C 288.5,492.167 288.5,506.833 288.5,521.5C 285.857,505.831 285.857,490.165 288.5,474.5 Z"/></g>
<g><path style="opacity:1" fill="#4b4e51" d="M 745.5,467.5 C 746.222,467.918 746.722,468.584 747,469.5C 748.664,483.975 748.831,498.308 747.5,512.5C 747.894,497.437 747.227,482.437 745.5,467.5 Z"/></g>
<g><path style="opacity:1" fill="#5b5e61" d="M 747.5,512.5 C 747.666,517.844 747.499,523.177 747,528.5C 746.722,529.416 746.222,530.082 745.5,530.5C 745.982,524.34 746.649,518.34 747.5,512.5 Z"/></g>
<g><path style="opacity:1" fill="#cacbcc" d="M 252.5,512.5 C 253.684,522.003 254.684,531.67 255.5,541.5C 254.71,540.391 254.21,539.058 254,537.5C 253.026,529.193 252.526,520.859 252.5,512.5 Z"/></g>
<g><path style="opacity:1" fill="#636668" d="M 710.5,527.5 C 710.23,532.45 709.23,537.117 707.5,541.5C 707.858,537.491 708.358,533.491 709,529.5C 709.278,528.584 709.778,527.918 710.5,527.5 Z"/></g>
<g><path style="opacity:1" fill="#bdbebf" d="M 289.5,530.5 C 291.044,535.606 292.044,540.939 292.5,546.5C 290.24,541.527 289.24,536.194 289.5,530.5 Z"/></g>
<g><path style="opacity:1" fill="#636668" d="M 257.5,552.5 C 258.657,555.273 259.324,558.273 259.5,561.5C 258.883,561.389 258.383,561.056 258,560.5C 257.503,557.854 257.336,555.187 257.5,552.5 Z"/></g>
<g><path style="opacity:1" fill="#a8aaac" d="M 298.5,569.5 C 300.245,571.033 301.245,573.033 301.5,575.5C 299.755,573.967 298.755,571.967 298.5,569.5 Z"/></g>
<g><path style="opacity:1" fill="#848689" d="M 696.5,580.5 C 696.573,582.027 695.906,583.027 694.5,583.5C 694.427,581.973 695.094,580.973 696.5,580.5 Z"/></g>
<g><path style="opacity:1" fill="#848688" d="M 266.5,585.5 C 268.245,587.033 269.245,589.033 269.5,591.5C 267.755,589.967 266.755,587.967 266.5,585.5 Z"/></g>
<g><path style="opacity:1" fill="#77797c" d="M 729.5,594.5 C 729.573,596.027 728.906,597.027 727.5,597.5C 727.427,595.973 728.094,594.973 729.5,594.5 Z"/></g>
<g><path style="opacity:1" fill="#afb1b2" d="M 559.5,703.5 C 555.597,705.898 551.264,707.231 546.5,707.5C 550.584,705.674 554.917,704.34 559.5,703.5 Z"/></g>
<g><path style="opacity:1" fill="#696c6e" d="M 449.5,706.5 C 453.897,706.425 458.23,706.925 462.5,708C 463.056,708.383 463.389,708.883 463.5,709.5C 458.609,708.99 453.942,707.99 449.5,706.5 Z"/></g>
<g><path style="opacity:1" fill="#898b8d" d="M 377.5,715.5 C 379.027,715.427 380.027,716.094 380.5,717.5C 378.973,717.573 377.973,716.906 377.5,715.5 Z"/></g>
<g><path style="opacity:1" fill="#5a5d60" d="M 618.5,717.5 C 617.514,719.408 615.848,720.408 613.5,720.5C 614.659,718.75 616.326,717.75 618.5,717.5 Z"/></g>
<g><path style="opacity:1" fill="#aaacad" d="M 401.5,727.5 C 404.491,727.166 406.824,728.166 408.5,730.5C 405.843,730.065 403.509,729.065 401.5,727.5 Z"/></g>
<g><path style="opacity:1" fill="#686b6e" d="M 597.5,727.5 C 595.967,729.245 593.967,730.245 591.5,730.5C 593.033,728.755 595.033,727.755 597.5,727.5 Z"/></g>
<g><path style="opacity:1" fill="#686b6d" d="M 569.5,737.5 C 567.898,739.074 565.898,739.741 563.5,739.5C 565.102,737.926 567.102,737.259 569.5,737.5 Z"/></g>
<g><path style="opacity:1" fill="#8d8f90" d="M 433.5,738.5 C 435.898,738.259 437.898,738.926 439.5,740.5C 437.102,740.741 435.102,740.074 433.5,738.5 Z"/></g>
<g><path style="opacity:1" fill="#929395" d="M 561.5,739.5 C 559.485,740.924 557.152,741.59 554.5,741.5C 556.515,740.076 558.848,739.41 561.5,739.5 Z"/></g>
<g><path style="opacity:1" fill="#505356" d="M 475.5,746.5 C 487.815,747.315 500.148,747.649 512.5,747.5C 502.008,748.659 491.341,748.825 480.5,748C 478.618,747.802 476.952,747.302 475.5,746.5 Z"/></g>
</svg>
