<?xml version="1.0" encoding="UTF-8"?>
<svg version="1.1" xmlns="http://www.w3.org/2000/svg" width="1000" height="1000">
<path d="M0 0 C330 0 660 0 1000 0 C1000 330 1000 660 1000 1000 C670 1000 340 1000 0 1000 C0 670 0 340 0 0 Z " fill="#1B1F23" transform="translate(0,0)"/>
<path d="M0 0 C1.2534348 0.9047973 2.48060735 1.84649427 3.6875 2.8125 C4.55761719 3.47378906 5.42773438 4.13507813 6.32421875 4.81640625 C19.89527223 15.4621849 28.84705574 27.4470567 31.6875 44.8125 C32.30603332 52.25222245 32.06843729 59.7314861 31.9375 67.1875 C31.91738962 69.19529454 31.89914694 71.20310869 31.8828125 73.2109375 C31.83921045 78.07861867 31.77043764 82.94533668 31.6875 87.8125 C32.89970718 87.80805878 34.11191437 87.80361755 35.3608551 87.79904175 C46.79310797 87.75847202 58.2253462 87.7285042 69.65765476 87.70887566 C75.53490261 87.69844516 81.41209228 87.68429924 87.28930664 87.66162109 C92.96271778 87.63986673 98.636073 87.62792585 104.30952263 87.62274551 C106.47242043 87.61905443 108.63531521 87.61184669 110.79818916 87.60103989 C113.83110254 87.58649065 116.86378577 87.58452351 119.89672852 87.58544922 C120.78793396 87.57825867 121.6791394 87.57106812 122.59735107 87.56365967 C127.69902845 87.58047341 131.85319495 88.16758843 136.6875 89.8125 C137.63753906 90.11929688 138.58757812 90.42609375 139.56640625 90.7421875 C144.77546658 92.57711123 149.27598357 94.40360094 153.6875 97.8125 C154.23792969 98.21984375 154.78835938 98.6271875 155.35546875 99.046875 C164.21032478 106.00565811 170.52040761 116.23290418 172.04991913 127.47673607 C172.17359987 130.19524002 172.18354512 132.88719844 172.14160156 135.6081543 C172.14218567 136.62413193 172.14276978 137.64010956 172.14337158 138.68687439 C172.14061229 142.0038519 172.10962259 145.31990065 172.078125 148.63671875 C172.07065495 150.95269785 172.06496563 153.26868331 172.06097412 155.58467102 C172.0457781 161.64938122 172.00654838 167.71370187 171.9621582 173.77825928 C171.92107503 179.97907239 171.90293532 186.17994909 171.8828125 192.38085938 C171.8400482 204.52490975 171.77187033 216.66867235 171.6875 228.8125 C172.93660156 228.79155273 174.18570312 228.77060547 175.47265625 228.74902344 C180.18412441 228.67567138 184.8955441 228.63036021 189.60742188 228.59277344 C191.63224828 228.57287185 193.65701889 228.54574054 195.68164062 228.51074219 C220.33862608 228.09572362 220.33862608 228.09572362 231.6875 232.8125 C232.0175 233.8025 232.3475 234.7925 232.6875 235.8125 C234.53955414 236.3801272 234.53955414 236.3801272 236.6875 236.8125 C245.65562116 241.6842801 253.25045112 248.56864817 257.6875 257.8125 C257.6875 258.4725 257.6875 259.1325 257.6875 259.8125 C258.3475 259.8125 259.0075 259.8125 259.6875 259.8125 C260.33660154 261.39449631 260.98164694 262.97815724 261.625 264.5625 C261.98464844 265.44421875 262.34429688 266.3259375 262.71484375 267.234375 C265.0476391 273.41768797 264.90690081 279.25662459 264.9375 285.8125 C264.9684375 287.42318359 264.9684375 287.42318359 265 289.06640625 C265.05566822 300.63147815 263.12729277 310.22056283 256.125 319.5625 C255.32545898 320.65461792 255.32545898 320.65461792 254.50976562 321.76879883 C245.42931133 333.80797684 232.69248546 341.73006342 217.79384995 344.52969933 C209.61383304 345.62795667 201.16892846 345.10490519 192.9375 345 C190.8724056 344.98492514 188.80730055 344.97124169 186.7421875 344.95898438 C181.72369166 344.92620274 176.70571549 344.87457511 171.6875 344.8125 C171.69749275 346.73357071 171.69749275 346.73357071 171.70768738 348.69345093 C171.76861 360.78698037 171.81352619 372.8804785 171.84293652 384.97412682 C171.85856514 391.19098706 171.87975236 397.407723 171.91381836 403.62451172 C171.94651152 409.62861979 171.96437409 415.63260861 171.97213173 421.63679886 C171.97765736 423.92282614 171.98844745 426.2088472 172.00469017 428.49482346 C172.02659651 431.70681406 172.02946138 434.91831732 172.02807617 438.13037109 C172.04425491 439.53515717 172.04425491 439.53515717 172.0607605 440.96832275 C172.01735317 450.3236347 169.95226388 458.30436523 163.9375 465.5625 C163.4950293 466.11397705 163.05255859 466.6654541 162.59667969 467.23364258 C157.7716784 473.12843658 153.32945885 477.9486076 145.6875 479.8125 C145.6875 480.4725 145.6875 481.1325 145.6875 481.8125 C144.33620353 482.29970213 142.98125684 482.77678184 141.625 483.25 C140.49384766 483.65025391 140.49384766 483.65025391 139.33984375 484.05859375 C133.02887519 485.85243312 126.76513541 485.95340137 120.26391602 485.92602539 C118.88712929 485.92624443 118.88712929 485.92624443 117.48252869 485.9264679 C114.46879661 485.92577493 111.45512744 485.91801151 108.44140625 485.91015625 C106.34390802 485.90828988 104.24640935 485.90686701 102.14891052 485.90586853 C96.64326767 485.9020606 91.13765142 485.89224509 85.63201904 485.88116455 C79.01814575 485.86910916 72.40426353 485.86453998 65.79038239 485.85871124 C55.75606978 485.84903238 45.7218155 485.82986375 35.6875 485.8125 C35.6875 469.9725 35.6875 454.1325 35.6875 437.8125 C35.0275 437.8125 34.3675 437.8125 33.6875 437.8125 C33.38457031 436.83410156 33.08164062 435.85570312 32.76953125 434.84765625 C27.48131248 418.13116333 19.95624329 406.32978842 4.6875 396.8125 C3.77355469 396.45027344 2.85960937 396.08804687 1.91796875 395.71484375 C-0.3125 394.8125 -0.3125 394.8125 -1.3125 392.8125 C-9.51632562 389.13353401 -17.70400072 388.43899801 -26.5625 388.4375 C-27.47217529 388.4360498 -28.38185059 388.43459961 -29.3190918 388.43310547 C-46.34301035 388.70746106 -60.57454528 395.17080183 -72.68359375 407.16015625 C-85.46118415 420.73503472 -89.27211554 436.29791177 -89.62890625 454.5625 C-89.64968735 455.46121826 -89.67046844 456.35993652 -89.69187927 457.28588867 C-89.75673053 460.12802236 -89.81595696 462.97024033 -89.875 465.8125 C-89.91824665 467.75131044 -89.96186279 469.69011268 -90.00585938 471.62890625 C-90.11234487 476.35668671 -90.21378947 481.08455107 -90.3125 485.8125 C-102.76971527 485.88219108 -115.2268837 485.93540814 -127.68425465 485.96793652 C-133.46950509 485.98355312 -139.25462156 486.00471805 -145.03979492 486.03881836 C-150.62894179 486.07155483 -156.21796027 486.0893831 -161.80719566 486.09713173 C-163.93330593 486.10264965 -166.05940965 486.11342449 -168.18546486 486.12969017 C-187.22915069 486.26951452 -199.74028868 484.43130899 -214.05078125 471.12890625 C-219.52127257 465.52614052 -222.0454388 459.39509629 -224.515625 452.03515625 C-225.11377819 449.86889523 -225.11377819 449.86889523 -226.3125 448.8125 C-226.40782328 445.73795239 -226.4380138 442.68590842 -226.42602539 439.61108398 C-226.42617142 438.64533447 -226.42631744 437.67958496 -226.4264679 436.68457031 C-226.42576834 433.47588901 -226.41797397 430.26726497 -226.41015625 427.05859375 C-226.40829222 424.84041882 -226.40686825 422.62224348 -226.40586853 420.40406799 C-226.40204216 414.55309929 -226.39221086 408.70215523 -226.38116455 402.85119629 C-226.37095299 396.88582696 -226.36637146 390.92045367 -226.36132812 384.95507812 C-226.35058869 373.24087456 -226.33351085 361.52668933 -226.3125 349.8125 C-225.7392247 349.80441315 -225.1659494 349.79632629 -224.57530212 349.78799438 C-218.58880066 349.70169139 -212.60262054 349.60217754 -206.61645508 349.49511719 C-204.3847393 349.45692117 -202.15296393 349.42205219 -199.92114258 349.390625 C-196.70632686 349.34477071 -193.49191808 349.28680963 -190.27734375 349.2265625 C-188.78943581 349.20923569 -188.78943581 349.20923569 -187.27146912 349.19155884 C-171.98028939 348.86848787 -157.55023359 341.59714274 -146.3125 331.375 C-134.19089786 318.67156096 -128.65842593 303.13573099 -128.84130859 285.76342773 C-129.3875355 269.68441514 -134.25851226 255.62252711 -145.3671875 243.6171875 C-149.03215474 240.21715765 -153.12147768 237.51617213 -157.3125 234.8125 C-158.00601563 234.33683594 -158.69953125 233.86117187 -159.4140625 233.37109375 C-169.84130021 226.41267815 -182.15328654 224.56260663 -194.4765625 224.3984375 C-195.39464691 224.37907135 -196.31273132 224.3597052 -197.25863647 224.3397522 C-200.15150056 224.28062855 -203.04440591 224.23384357 -205.9375 224.1875 C-207.91538062 224.14925817 -209.89324569 224.11020297 -211.87109375 224.0703125 C-216.68476748 223.97498356 -221.49851893 223.89070891 -226.3125 223.8125 C-226.35897693 212.13756852 -226.39444698 200.46265931 -226.41612434 188.78765392 C-226.42653187 183.36564538 -226.44063539 177.94370046 -226.46337891 172.52172852 C-226.48521577 167.2827168 -226.49709139 162.04376603 -226.50225449 156.8047123 C-226.50593085 154.81258499 -226.51310955 152.82046076 -226.52396011 150.8283596 C-226.62016655 132.42226366 -226.0591365 114.99164691 -212.59375 100.93359375 C-208.03237204 96.69244952 -204.25793288 94.15592912 -198.3125 92.125 C-197.11625 91.70863281 -195.92 91.29226563 -194.6875 90.86328125 C-188.47890332 88.93028066 -182.93368902 88.67390406 -176.47338867 88.69897461 C-175.48754791 88.69882858 -174.50170715 88.69868256 -173.48599243 88.6985321 C-170.23412866 88.69922763 -166.98232249 88.70700319 -163.73046875 88.71484375 C-161.47317028 88.71670921 -159.21587141 88.71813251 -156.95857239 88.71913147 C-151.02217488 88.72294657 -145.08580189 88.73276828 -139.14941406 88.74383545 C-133.08984713 88.7540712 -127.03027622 88.75863373 -120.97070312 88.76367188 C-109.08462465 88.77439143 -97.19856437 88.79145579 -85.3125 88.8125 C-85.32297363 87.53721436 -85.33344727 86.26192871 -85.34423828 84.94799805 C-85.380712 80.17133442 -85.4034992 75.39468285 -85.42236328 70.61791992 C-85.43235892 68.55897952 -85.44595992 66.50005309 -85.46337891 64.44116211 C-85.48791262 61.4646457 -85.49904775 58.48831859 -85.5078125 55.51171875 C-85.51813507 54.6060466 -85.52845764 53.70037445 -85.53909302 52.76725769 C-85.54223101 34.48544167 -79.05930505 21.72730248 -66.3125 8.8125 C-55.95968163 -0.1875 -55.95968163 -0.1875 -50.3125 -0.1875 C-50.3125 -0.8475 -50.3125 -1.5075 -50.3125 -2.1875 C-34.00835806 -7.36782311 -15.44057115 -9.07527447 0 0 Z " fill="#FEFEFE" transform="translate(492.3125,248.1875)"/>
<path d="M0 0 C0.66 0.33 1.32 0.66 2 1 C0.38113585 2.67262717 -1.2452729 4.33795537 -2.875 6 C-4.23238281 7.3921875 -4.23238281 7.3921875 -5.6171875 8.8125 C-8 11 -8 11 -10 11 C-10 11.66 -10 12.32 -10 13 C-10.66 12.67 -11.32 12.34 -12 12 C-8.27653164 7.57905197 -4.70478962 3.42166518 0 0 Z " fill="#C7C8C9" transform="translate(287,343)"/>
</svg>
