<?xml version="1.0" encoding="UTF-8"?>
<!DOCTYPE svg PUBLIC "-//W3C//DTD SVG 1.1//EN" "http://www.w3.org/Graphics/SVG/1.1/DTD/svg11.dtd">
<svg xmlns="http://www.w3.org/2000/svg" version="1.1" width="1000px" height="1000px" style="shape-rendering:geometricPrecision; text-rendering:geometricPrecision; image-rendering:optimizeQuality; fill-rule:evenodd; clip-rule:evenodd" xmlns:xlink="http://www.w3.org/1999/xlink">
<g><path style="opacity:1" fill="#1b1f23" d="M -0.5,-0.5 C 332.833,-0.5 666.167,-0.5 999.5,-0.5C 999.5,332.833 999.5,666.167 999.5,999.5C 666.167,999.5 332.833,999.5 -0.5,999.5C -0.5,666.167 -0.5,332.833 -0.5,-0.5 Z"/></g>
<g><path style="opacity:1" fill="#606265" d="M 490.5,258.5 C 495.65,257.349 500.984,257.183 506.5,258C 509.851,258.057 512.851,258.891 515.5,260.5C 507.248,258.95 498.915,258.283 490.5,258.5 Z"/></g>
<g><path style="opacity:1" fill="#fafafa" d="M 319.5,258.5 C 323.431,259.311 327.431,260.311 331.5,261.5C 348.942,267.275 360.275,278.941 365.5,296.5C 368.109,306.483 368.109,316.483 365.5,326.5C 363.794,330.915 361.794,335.248 359.5,339.5C 357.413,340.585 356.08,342.251 355.5,344.5C 335.741,364.252 313.075,368.585 287.5,357.5C 287.027,356.094 286.027,355.427 284.5,355.5C 269.533,346.941 261.033,333.941 259,316.5C 257.579,284.905 272.412,265.739 303.5,259C 308.823,258.501 314.156,258.334 319.5,258.5 Z"/></g>
<g><path style="opacity:1" fill="#585b5e" d="M 319.5,258.5 C 322.187,258.336 324.854,258.503 327.5,259C 329.32,259.2 330.653,260.034 331.5,261.5C 327.431,260.311 323.431,259.311 319.5,258.5 Z"/></g>
<g><path style="opacity:1" fill="#fbfbfb" d="M 601.5,264.5 C 601.5,308.833 601.5,353.167 601.5,397.5C 644.167,397.5 686.833,397.5 729.5,397.5C 732.614,397.555 734.948,398.888 736.5,401.5C 738.178,404.552 738.845,407.885 738.5,411.5C 736.664,414.168 734.331,416.334 731.5,418C 688.501,418.5 645.501,418.667 602.5,418.5C 601.501,473.664 601.168,528.997 601.5,584.5C 645.833,584.5 690.167,584.5 734.5,584.5C 736.93,586.053 738.93,588.053 740.5,590.5C 740.296,593.518 739.963,596.518 739.5,599.5C 737.625,602.364 734.958,604.031 731.5,604.5C 688.167,604.5 644.833,604.5 601.5,604.5C 601.5,647.833 601.5,691.167 601.5,734.5C 600.053,736.403 598.386,738.07 596.5,739.5C 592.833,739.5 589.167,739.5 585.5,739.5C 584.5,738.167 583.5,736.833 582.5,735.5C 581.521,691.857 581.188,648.19 581.5,604.5C 526.167,604.5 470.833,604.5 415.5,604.5C 414.812,648.02 414.146,691.687 413.5,735.5C 411.977,738.364 409.643,740.031 406.5,740.5C 404.194,740.007 401.861,739.674 399.5,739.5C 397.605,738.027 395.939,736.36 394.5,734.5C 394.5,691.167 394.5,647.833 394.5,604.5C 351.5,604.5 308.5,604.5 265.5,604.5C 259.072,601.514 256.905,596.514 259,589.5C 260.371,587.959 261.871,586.625 263.5,585.5C 307.294,584.844 350.961,584.177 394.5,583.5C 394.832,528.331 394.499,473.331 393.5,418.5C 350.832,418.667 308.165,418.5 265.5,418C 262.394,416.575 260.06,414.408 258.5,411.5C 258.155,407.885 258.822,404.552 260.5,401.5C 260.5,400.833 260.833,400.5 261.5,400.5C 263.179,400.108 264.846,399.608 266.5,399C 309.335,398.833 352.002,398.333 394.5,397.5C 394.177,352.791 394.51,308.124 395.5,263.5C 399.365,258.258 404.365,257.091 410.5,260C 412.333,261.167 413.833,262.667 415,264.5C 415.5,308.832 415.667,353.165 415.5,397.5C 470.5,397.5 525.5,397.5 580.5,397.5C 580.333,353.165 580.5,308.832 581,264.5C 585.105,258.398 590.605,256.898 597.5,260C 599.041,261.371 600.375,262.871 601.5,264.5 Z"/></g>
<g><path style="opacity:1" fill="#fafafa" d="M 490.5,258.5 C 498.915,258.283 507.248,258.95 515.5,260.5C 549.12,272.907 560.787,296.407 550.5,331C 539.59,351.549 522.423,362.382 499,363.5C 469.09,361.541 451.09,345.875 445,316.5C 444.267,311.115 444.433,305.782 445.5,300.5C 446.871,298.064 447.871,295.397 448.5,292.5C 448.5,291.833 448.5,291.167 448.5,290.5C 449.906,290.027 450.573,289.027 450.5,287.5C 459.171,271.49 472.504,261.823 490.5,258.5 Z"/></g>
<g><path style="opacity:1" fill="#696c6f" d="M 656.5,269.5 C 652.737,268.3 649.07,268.634 645.5,270.5C 647.031,268.32 649.198,267.32 652,267.5C 654.008,267.307 655.508,267.974 656.5,269.5 Z"/></g>
<g><path style="opacity:1" fill="#636669" d="M 719.5,269.5 C 716.43,269.368 713.43,269.701 710.5,270.5C 710.611,269.883 710.944,269.383 711.5,269C 714.367,268.199 717.034,268.366 719.5,269.5 Z"/></g>
<g><path style="opacity:1" fill="#fafafa" d="M 656.5,269.5 C 665.76,278.15 675.093,286.817 684.5,295.5C 693.187,287.145 701.854,278.812 710.5,270.5C 713.43,269.701 716.43,269.368 719.5,269.5C 721.833,271.167 723.833,273.167 725.5,275.5C 725.632,278.57 725.299,281.57 724.5,284.5C 716.188,293.146 707.855,301.813 699.5,310.5C 708,319.5 716.5,328.5 725,337.5C 727.387,350.44 722.22,354.94 709.5,351C 701.319,342.652 692.986,334.486 684.5,326.5C 675.714,333.784 667.381,341.617 659.5,350C 647.837,354.359 642.337,350.192 643,337.5C 651.383,328.579 659.883,319.746 668.5,311C 659.679,301.512 650.846,292.012 642,282.5C 640.746,277.695 641.913,273.695 645.5,270.5C 649.07,268.634 652.737,268.3 656.5,269.5 Z"/></g>
<g><path style="opacity:1" fill="#a1a3a5" d="M 323.5,280.5 C 316.833,279.167 310.167,279.167 303.5,280.5C 303.918,279.778 304.584,279.278 305.5,279C 308,278.833 310.5,278.667 313,278.5C 316.805,278.304 320.305,278.97 323.5,280.5 Z"/></g>
<g><path style="opacity:1" fill="#a9abac" d="M 506.5,279.5 C 500.464,279.36 494.464,279.693 488.5,280.5C 491.695,278.97 495.195,278.304 499,278.5C 501.69,278.503 504.19,278.836 506.5,279.5 Z"/></g>
<g><path style="opacity:1" fill="#5a5d60" d="M 725.5,275.5 C 726.634,277.966 726.801,280.633 726,283.5C 725.617,284.056 725.117,284.389 724.5,284.5C 725.299,281.57 725.632,278.57 725.5,275.5 Z"/></g>
<g><path style="opacity:1" fill="#a3a4a6" d="M 506.5,279.5 C 509.716,279.345 512.383,280.345 514.5,282.5C 511.603,281.871 508.936,280.871 506.5,279.5 Z"/></g>
<g><path style="opacity:1" fill="#1c2024" d="M 323.5,280.5 C 334.048,284.046 341.381,291.046 345.5,301.5C 346.833,307.5 346.833,313.5 345.5,319.5C 344.16,323.317 342.326,326.983 340,330.5C 321.97,346.439 303.97,346.439 286,330.5C 283.674,326.983 281.84,323.317 280.5,319.5C 279.167,313.833 279.167,308.167 280.5,302.5C 284.203,291.132 291.87,283.799 303.5,280.5C 310.167,279.167 316.833,279.167 323.5,280.5 Z"/></g>
<g><path style="opacity:1" fill="#1c2024" d="M 506.5,279.5 C 508.936,280.871 511.603,281.871 514.5,282.5C 531.204,291.093 536.704,304.427 531,322.5C 520.905,340.077 506.071,345.91 486.5,340C 476.846,336.181 470.512,329.348 467.5,319.5C 467.077,316.353 466.744,313.186 466.5,310C 467.061,305.386 468.061,300.886 469.5,296.5C 473.64,288.592 479.973,283.259 488.5,280.5C 494.464,279.693 500.464,279.36 506.5,279.5 Z"/></g>
<g><path style="opacity:1" fill="#76787b" d="M 450.5,287.5 C 450.573,289.027 449.906,290.027 448.5,290.5C 448.427,288.973 449.094,287.973 450.5,287.5 Z"/></g>
<g><path style="opacity:1" fill="#7f8284" d="M 448.5,292.5 C 447.871,295.397 446.871,298.064 445.5,300.5C 445.345,297.284 446.345,294.617 448.5,292.5 Z"/></g>
<g><path style="opacity:1" fill="#737578" d="M 365.5,296.5 C 367.067,297.681 367.901,299.347 368,301.5C 368.762,309.215 368.429,316.881 367,324.5C 366.722,325.416 366.222,326.082 365.5,326.5C 368.109,316.483 368.109,306.483 365.5,296.5 Z"/></g>
<g><path style="opacity:1" fill="#9a9b9d" d="M 280.5,302.5 C 279.167,308.167 279.167,313.833 280.5,319.5C 279.778,319.082 279.278,318.416 279,317.5C 278.333,312.833 278.333,308.167 279,303.5C 279.383,302.944 279.883,302.611 280.5,302.5 Z"/></g>
<g><path style="opacity:1" fill="#585b5e" d="M 469.5,296.5 C 468.061,300.886 467.061,305.386 466.5,310C 466.744,313.186 467.077,316.353 467.5,319.5C 466.778,319.082 466.278,318.416 466,317.5C 465.333,312.833 465.333,308.167 466,303.5C 466.67,300.826 467.837,298.493 469.5,296.5 Z"/></g>
<g><path style="opacity:1" fill="#8d8f91" d="M 345.5,301.5 C 347.006,304.356 347.672,307.523 347.5,311C 347.333,313.167 347.167,315.333 347,317.5C 346.722,318.416 346.222,319.082 345.5,319.5C 346.833,313.5 346.833,307.5 345.5,301.5 Z"/></g>
<g><path style="opacity:1" fill="#5c5f62" d="M 359.5,339.5 C 358.92,341.749 357.587,343.415 355.5,344.5C 356.08,342.251 357.413,340.585 359.5,339.5 Z"/></g>
<g><path style="opacity:1" fill="#8a8c8e" d="M 284.5,355.5 C 286.027,355.427 287.027,356.094 287.5,357.5C 285.973,357.573 284.973,356.906 284.5,355.5 Z"/></g>
<g><path style="opacity:1" fill="#525558" d="M 395.5,263.5 C 394.51,308.124 394.177,352.791 394.5,397.5C 352.167,397.5 309.833,397.5 267.5,397.5C 309.33,396.501 351.33,396.168 393.5,396.5C 393.333,352.499 393.5,308.499 394,264.5C 394.383,263.944 394.883,263.611 395.5,263.5 Z"/></g>
<g><path style="opacity:1" fill="#54575a" d="M 601.5,264.5 C 602.499,308.33 602.832,352.33 602.5,396.5C 645.003,396.168 687.337,396.501 729.5,397.5C 686.833,397.5 644.167,397.5 601.5,397.5C 601.5,353.167 601.5,308.833 601.5,264.5 Z"/></g>
<g><path style="opacity:1" fill="#e9e9e9" d="M 267.5,397.5 C 309.833,397.5 352.167,397.5 394.5,397.5C 352.002,398.333 309.335,398.833 266.5,399C 264.846,399.608 263.179,400.108 261.5,400.5C 262.911,398.461 264.911,397.461 267.5,397.5 Z"/></g>
<g><path style="opacity:1" fill="#646669" d="M 260.5,401.5 C 258.822,404.552 258.155,407.885 258.5,411.5C 257.366,409.034 257.199,406.367 258,403.5C 258.708,402.619 259.542,401.953 260.5,401.5 Z"/></g>
<g><path style="opacity:1" fill="#7a7c7e" d="M 736.5,401.5 C 737.458,401.953 738.292,402.619 739,403.5C 739.801,406.367 739.634,409.034 738.5,411.5C 738.845,407.885 738.178,404.552 736.5,401.5 Z"/></g>
<g><path style="opacity:1" fill="#1b1f23" d="M 415.5,418.5 C 470.5,418.5 525.5,418.5 580.5,418.5C 580.5,473.5 580.5,528.5 580.5,583.5C 525.5,583.5 470.5,583.5 415.5,583.5C 415.5,528.5 415.5,473.5 415.5,418.5 Z"/></g>
<g><path style="opacity:1" fill="#76797b" d="M 704.5,450.5 C 692.255,447.045 679.922,446.712 667.5,449.5C 669.476,447.989 671.809,447.156 674.5,447C 682.548,446.225 690.548,446.558 698.5,448C 700.723,448.566 702.723,449.4 704.5,450.5 Z"/></g>
<g><path style="opacity:1" fill="#fbfbfb" d="M 704.5,450.5 C 720.727,457.061 731.393,468.728 736.5,485.5C 739.109,495.483 739.109,505.483 736.5,515.5C 731.469,527.215 723.802,536.882 713.5,544.5C 708.989,545.931 704.655,547.598 700.5,549.5C 697.411,550.785 694.078,551.451 690.5,551.5C 683.82,551.388 677.153,551.054 670.5,550.5C 667.855,548.69 664.855,547.69 661.5,547.5C 647.773,541.439 638.106,531.439 632.5,517.5C 630.045,508.695 629.045,499.695 629.5,490.5C 634.622,469.716 647.289,456.049 667.5,449.5C 679.922,446.712 692.255,447.045 704.5,450.5 Z"/></g>
<g><path style="opacity:1" fill="#aaabad" d="M 472.5,458.5 C 469.167,458.5 465.833,458.5 462.5,458.5C 463.312,457.007 464.645,456.34 466.5,456.5C 468.799,456.599 470.799,457.266 472.5,458.5 Z"/></g>
<g><path style="opacity:1" fill="#838587" d="M 534.5,458.5 C 531.43,458.368 528.43,458.701 525.5,459.5C 525.611,458.883 525.944,458.383 526.5,458C 529.367,457.199 532.034,457.366 534.5,458.5 Z"/></g>
<g><path style="opacity:1" fill="#f9f9f9" d="M 462.5,458.5 C 465.833,458.5 469.167,458.5 472.5,458.5C 481.453,467.118 490.453,475.784 499.5,484.5C 508.187,476.145 516.854,467.812 525.5,459.5C 528.43,458.701 531.43,458.368 534.5,458.5C 540.377,460.921 542.544,465.255 541,471.5C 533.025,481.308 524.525,490.642 515.5,499.5C 524.054,508.38 532.554,517.38 541,526.5C 543.52,532.936 541.687,537.769 535.5,541C 532.5,541.667 529.5,541.667 526.5,541C 517.349,532.683 508.349,524.183 499.5,515.5C 491.037,523.794 482.37,531.961 473.5,540C 467.395,542.773 462.728,541.273 459.5,535.5C 459.081,531.227 459.748,527.227 461.5,523.5C 469.145,515.521 476.812,507.521 484.5,499.5C 475.151,489.985 465.984,480.318 457,470.5C 456.159,466.88 456.826,463.546 459,460.5C 459.816,459.177 460.983,458.511 462.5,458.5 Z"/></g>
<g><path style="opacity:1" fill="#575a5d" d="M 693.5,468.5 C 693.5,468.833 693.5,469.167 693.5,469.5C 684.256,468.79 675.256,469.79 666.5,472.5C 669.366,470.239 672.699,468.739 676.5,468C 682.218,467.26 687.885,467.427 693.5,468.5 Z"/></g>
<g><path style="opacity:1" fill="#1c2024" d="M 693.5,469.5 C 695.421,470.363 697.421,471.029 699.5,471.5C 707.953,474.951 713.62,480.951 716.5,489.5C 717.958,496.589 717.624,503.589 715.5,510.5C 710.311,522.266 701.311,528.932 688.5,530.5C 682.42,530.483 676.42,529.817 670.5,528.5C 657.25,522.874 650.583,512.708 650.5,498C 651.369,486.774 656.702,478.274 666.5,472.5C 675.256,469.79 684.256,468.79 693.5,469.5 Z"/></g>
<g><path style="opacity:1" fill="#959799" d="M 693.5,469.5 C 693.5,469.167 693.5,468.833 693.5,468.5C 695.967,468.755 697.967,469.755 699.5,471.5C 697.421,471.029 695.421,470.363 693.5,469.5 Z"/></g>
<g><path style="opacity:1" fill="#535659" d="M 629.5,490.5 C 629.045,499.695 630.045,508.695 632.5,517.5C 631.034,516.653 630.2,515.32 630,513.5C 628.443,505.7 628.277,498.033 629.5,490.5 Z"/></g>
<g><path style="opacity:1" fill="#797c7e" d="M 736.5,485.5 C 738.067,486.681 738.901,488.347 739,490.5C 739.706,498.208 739.372,505.875 738,513.5C 737.722,514.416 737.222,515.082 736.5,515.5C 739.109,505.483 739.109,495.483 736.5,485.5 Z"/></g>
<g><path style="opacity:1" fill="#838688" d="M 716.5,489.5 C 717.991,492.186 718.657,495.186 718.5,498.5C 718.384,502.22 717.884,505.887 717,509.5C 716.617,510.056 716.117,510.389 715.5,510.5C 717.624,503.589 717.958,496.589 716.5,489.5 Z"/></g>
<g><path style="opacity:1" fill="#4a4d50" d="M 670.5,528.5 C 676.42,529.817 682.42,530.483 688.5,530.5C 682.293,532.056 676.293,531.39 670.5,528.5 Z"/></g>
<g><path style="opacity:1" fill="#abacae" d="M 461.5,523.5 C 459.748,527.227 459.081,531.227 459.5,535.5C 458.883,535.389 458.383,535.056 458,534.5C 456.663,529.916 457.829,526.249 461.5,523.5 Z"/></g>
<g><path style="opacity:1" fill="#5a5d60" d="M 713.5,544.5 C 709.797,547.517 705.464,549.184 700.5,549.5C 704.655,547.598 708.989,545.931 713.5,544.5 Z"/></g>
<g><path style="opacity:1" fill="#9d9fa1" d="M 661.5,547.5 C 664.855,547.69 667.855,548.69 670.5,550.5C 667.084,550.472 664.084,549.472 661.5,547.5 Z"/></g>
<g><path style="opacity:1" fill="#b3b5b6" d="M 670.5,550.5 C 677.153,551.054 683.82,551.388 690.5,551.5C 688.022,552.164 685.355,552.497 682.5,552.5C 678.223,552.663 674.223,551.997 670.5,550.5 Z"/></g>
<g><path style="opacity:1" fill="#3d4145" d="M 393.5,418.5 C 394.499,473.331 394.832,528.331 394.5,583.5C 352.167,583.5 309.833,583.5 267.5,583.5C 309.33,582.501 351.33,582.168 393.5,582.5C 393.5,527.833 393.5,473.167 393.5,418.5 Z"/></g>
<g><path style="opacity:1" fill="#505457" d="M 602.5,418.5 C 602.5,473.167 602.5,527.833 602.5,582.5C 645.501,582.333 688.501,582.5 731.5,583C 732.737,583.232 733.737,583.732 734.5,584.5C 690.167,584.5 645.833,584.5 601.5,584.5C 601.168,528.997 601.501,473.664 602.5,418.5 Z"/></g>
<g><path style="opacity:1" fill="#8d8f91" d="M 267.5,583.5 C 309.833,583.5 352.167,583.5 394.5,583.5C 350.961,584.177 307.294,584.844 263.5,585.5C 264.287,583.896 265.62,583.229 267.5,583.5 Z"/></g>
<g><path style="opacity:1" fill="#86888a" d="M 740.5,590.5 C 741.634,592.966 741.801,595.633 741,598.5C 740.617,599.056 740.117,599.389 739.5,599.5C 739.963,596.518 740.296,593.518 740.5,590.5 Z"/></g>
<g><path style="opacity:1" fill="#5d5f62" d="M 265.5,604.5 C 308.5,604.5 351.5,604.5 394.5,604.5C 394.5,647.833 394.5,691.167 394.5,734.5C 393.501,691.67 393.168,648.67 393.5,605.5C 350.663,605.832 307.997,605.499 265.5,604.5 Z"/></g>
<g><path style="opacity:1" fill="#a9aaac" d="M 415.5,604.5 C 415.5,604.833 415.5,605.167 415.5,605.5C 415.667,648.501 415.5,691.501 415,734.5C 414.617,735.056 414.117,735.389 413.5,735.5C 414.146,691.687 414.812,648.02 415.5,604.5 Z"/></g>
<g><path style="opacity:1" fill="#939597" d="M 415.5,605.5 C 415.5,605.167 415.5,604.833 415.5,604.5C 470.833,604.5 526.167,604.5 581.5,604.5C 581.188,648.19 581.521,691.857 582.5,735.5C 581.883,735.389 581.383,735.056 581,734.5C 580.5,691.501 580.333,648.501 580.5,605.5C 525.5,605.5 470.5,605.5 415.5,605.5 Z"/></g>
<g><path style="opacity:1" fill="#606366" d="M 731.5,604.5 C 688.67,605.499 645.67,605.832 602.5,605.5C 602.832,648.67 602.499,691.67 601.5,734.5C 601.5,691.167 601.5,647.833 601.5,604.5C 644.833,604.5 688.167,604.5 731.5,604.5 Z"/></g>
<g><path style="opacity:1" fill="#989a9c" d="M 506.5,636.5 C 499.82,636.612 493.153,636.946 486.5,637.5C 490.406,636.06 494.573,635.394 499,635.5C 501.69,635.503 504.19,635.836 506.5,636.5 Z"/></g>
<g><path style="opacity:1" fill="#fafafa" d="M 506.5,636.5 C 524.28,638.968 538.114,647.635 548,662.5C 558.773,685.83 555.606,706.997 538.5,726C 534.324,729.919 529.657,733.086 524.5,735.5C 521.603,736.129 518.936,737.129 516.5,738.5C 513.848,738.41 511.515,739.076 509.5,740.5C 502.5,741.833 495.5,741.833 488.5,740.5C 485.495,738.723 482.162,737.723 478.5,737.5C 465.609,731.61 455.942,722.277 449.5,709.5C 448.871,706.603 447.871,703.936 446.5,701.5C 444.379,693.232 444.046,684.899 445.5,676.5C 447.245,674.967 448.245,672.967 448.5,670.5C 448.833,669.167 449.167,667.833 449.5,666.5C 450.906,666.027 451.573,665.027 451.5,663.5C 452.443,660.6 454.11,658.267 456.5,656.5C 459.167,654.5 461.5,652.167 463.5,649.5C 466.257,646.421 469.59,644.088 473.5,642.5C 475.027,642.573 476.027,641.906 476.5,640.5C 477.833,640.167 479.167,639.833 480.5,639.5C 482.898,639.741 484.898,639.074 486.5,637.5C 493.153,636.946 499.82,636.612 506.5,636.5 Z"/></g>
<g><path style="opacity:1" fill="#aeafb0" d="M 486.5,637.5 C 484.898,639.074 482.898,639.741 480.5,639.5C 482.102,637.926 484.102,637.259 486.5,637.5 Z"/></g>
<g><path style="opacity:1" fill="#8d8f91" d="M 476.5,640.5 C 476.027,641.906 475.027,642.573 473.5,642.5C 473.973,641.094 474.973,640.427 476.5,640.5 Z"/></g>
<g><path style="opacity:1" fill="#f9f9f9" d="M 339.5,648.5 C 342.167,648.167 344.833,647.833 347.5,647.5C 354.91,651.457 356.41,657.124 352,664.5C 343.985,672.348 336.152,680.348 328.5,688.5C 337.516,697.682 346.349,707.016 355,716.5C 356.17,722.169 354.337,726.502 349.5,729.5C 345.766,729.677 342.099,729.344 338.5,728.5C 329.847,720.347 321.347,712.014 313,703.5C 304.492,712.342 295.658,720.842 286.5,729C 275.553,731.053 270.72,726.553 272,715.5C 280.317,706.349 288.817,697.349 297.5,688.5C 289.514,680.014 281.348,671.681 273,663.5C 269.223,657.325 270.057,651.825 275.5,647C 278.833,646.333 282.167,646.333 285.5,647C 294.679,655.513 303.845,664.013 313,672.5C 321.712,664.284 330.546,656.284 339.5,648.5 Z"/></g>
<g><path style="opacity:1" fill="#aaabac" d="M 347.5,647.5 C 344.833,647.833 342.167,648.167 339.5,648.5C 340.492,646.974 341.992,646.307 344,646.5C 345.385,646.514 346.551,646.848 347.5,647.5 Z"/></g>
<g><path style="opacity:1" fill="#a8a9ab" d="M 463.5,649.5 C 461.5,652.167 459.167,654.5 456.5,656.5C 457.833,653.167 460.167,650.833 463.5,649.5 Z"/></g>
<g><path style="opacity:1" fill="#1d2125" d="M 511.5,658.5 C 511.973,659.906 512.973,660.573 514.5,660.5C 531.252,669.022 536.752,682.355 531,700.5C 525.208,711.607 516.042,718.107 503.5,720C 486.726,720.695 474.559,713.528 467,698.5C 466.505,696.527 466.338,694.527 466.5,692.5C 466.248,687.012 466.915,681.678 468.5,676.5C 472.378,667.46 479.044,661.294 488.5,658C 496.202,657.269 503.869,657.436 511.5,658.5 Z"/></g>
<g><path style="opacity:1" fill="#858789" d="M 511.5,658.5 C 513.027,658.427 514.027,659.094 514.5,660.5C 512.973,660.573 511.973,659.906 511.5,658.5 Z"/></g>
<g><path style="opacity:1" fill="#787b7d" d="M 451.5,663.5 C 451.573,665.027 450.906,666.027 449.5,666.5C 449.427,664.973 450.094,663.973 451.5,663.5 Z"/></g>
<g><path style="opacity:1" fill="#7f8183" d="M 448.5,670.5 C 448.245,672.967 447.245,674.967 445.5,676.5C 445.755,674.033 446.755,672.033 448.5,670.5 Z"/></g>
<g><path style="opacity:1" fill="#535659" d="M 468.5,676.5 C 466.915,681.678 466.248,687.012 466.5,692.5C 465.357,689.024 465.19,685.358 466,681.5C 466.374,679.509 467.207,677.842 468.5,676.5 Z"/></g>
<g><path style="opacity:1" fill="#717376" d="M 446.5,701.5 C 447.871,703.936 448.871,706.603 449.5,709.5C 447.345,707.383 446.345,704.716 446.5,701.5 Z"/></g>
<g><path style="opacity:1" fill="#acadaf" d="M 338.5,728.5 C 342.099,729.344 345.766,729.677 349.5,729.5C 348.508,731.026 347.008,731.693 345,731.5C 342.198,731.68 340.031,730.68 338.5,728.5 Z"/></g>
<g><path style="opacity:1" fill="#7d7f82" d="M 478.5,737.5 C 482.162,737.723 485.495,738.723 488.5,740.5C 484.838,740.277 481.505,739.277 478.5,737.5 Z"/></g>
<g><path style="opacity:1" fill="#6b6d70" d="M 524.5,735.5 C 522.383,737.655 519.716,738.655 516.5,738.5C 518.936,737.129 521.603,736.129 524.5,735.5 Z"/></g>
<g><path style="opacity:1" fill="#838587" d="M 516.5,738.5 C 514.485,739.924 512.152,740.59 509.5,740.5C 511.515,739.076 513.848,738.41 516.5,738.5 Z"/></g>
<g><path style="opacity:1" fill="#b5b6b7" d="M 585.5,739.5 C 589.167,739.5 592.833,739.5 596.5,739.5C 592.801,742.065 589.135,742.065 585.5,739.5 Z"/></g>
<g><path style="opacity:1" fill="#97999b" d="M 399.5,739.5 C 401.861,739.674 404.194,740.007 406.5,740.5C 403.988,741.867 401.655,741.534 399.5,739.5 Z"/></g>
</svg>
